G04 #@! TF.GenerationSoftware,KiCad,Pcbnew,5.1.2-f72e74a~84~ubuntu18.04.1*
G04 #@! TF.CreationDate,2019-05-17T13:13:24-07:00*
G04 #@! TF.ProjectId,RPZ_SC_VNA,52505a5f-5343-45f5-964e-412e6b696361,rev?*
G04 #@! TF.SameCoordinates,Original*
G04 #@! TF.FileFunction,Legend,Bot*
G04 #@! TF.FilePolarity,Positive*
%FSLAX46Y46*%
G04 Gerber Fmt 4.6, Leading zero omitted, Abs format (unit mm)*
G04 Created by KiCad (PCBNEW 5.1.2-f72e74a~84~ubuntu18.04.1) date 2019-05-17 13:13:24*
%MOMM*%
%LPD*%
G04 APERTURE LIST*
%ADD10C,0.100000*%
%ADD11C,0.150000*%
%ADD12C,0.120000*%
G04 APERTURE END LIST*
D10*
X125932814Y-89217857D02*
X126682814Y-89217857D01*
X125932814Y-88896428D02*
X126325671Y-88896428D01*
X126397100Y-88932142D01*
X126432814Y-89003571D01*
X126432814Y-89110714D01*
X126397100Y-89182142D01*
X126361385Y-89217857D01*
X126432814Y-88646428D02*
X126432814Y-88360714D01*
X126682814Y-88539285D02*
X126039957Y-88539285D01*
X125968528Y-88503571D01*
X125932814Y-88432142D01*
X125932814Y-88360714D01*
X126432814Y-88217857D02*
X126432814Y-87932142D01*
X126682814Y-88110714D02*
X126039957Y-88110714D01*
X125968528Y-88075000D01*
X125932814Y-88003571D01*
X125932814Y-87932142D01*
X126432814Y-87682142D02*
X125682814Y-87682142D01*
X126397100Y-87682142D02*
X126432814Y-87610714D01*
X126432814Y-87467857D01*
X126397100Y-87396428D01*
X126361385Y-87360714D01*
X126289957Y-87325000D01*
X126075671Y-87325000D01*
X126004242Y-87360714D01*
X125968528Y-87396428D01*
X125932814Y-87467857D01*
X125932814Y-87610714D01*
X125968528Y-87682142D01*
X125968528Y-87039285D02*
X125932814Y-86967857D01*
X125932814Y-86825000D01*
X125968528Y-86753571D01*
X126039957Y-86717857D01*
X126075671Y-86717857D01*
X126147100Y-86753571D01*
X126182814Y-86825000D01*
X126182814Y-86932142D01*
X126218528Y-87003571D01*
X126289957Y-87039285D01*
X126325671Y-87039285D01*
X126397100Y-87003571D01*
X126432814Y-86932142D01*
X126432814Y-86825000D01*
X126397100Y-86753571D01*
X126004242Y-86396428D02*
X125968528Y-86360714D01*
X125932814Y-86396428D01*
X125968528Y-86432142D01*
X126004242Y-86396428D01*
X125932814Y-86396428D01*
X126397100Y-86396428D02*
X126361385Y-86360714D01*
X126325671Y-86396428D01*
X126361385Y-86432142D01*
X126397100Y-86396428D01*
X126325671Y-86396428D01*
X126718528Y-85503571D02*
X125754242Y-86146428D01*
X126718528Y-84717857D02*
X125754242Y-85360714D01*
X126432814Y-84146428D02*
X125825671Y-84146428D01*
X125754242Y-84182142D01*
X125718528Y-84217857D01*
X125682814Y-84289285D01*
X125682814Y-84396428D01*
X125718528Y-84467857D01*
X125968528Y-84146428D02*
X125932814Y-84217857D01*
X125932814Y-84360714D01*
X125968528Y-84432142D01*
X126004242Y-84467857D01*
X126075671Y-84503571D01*
X126289957Y-84503571D01*
X126361385Y-84467857D01*
X126397100Y-84432142D01*
X126432814Y-84360714D01*
X126432814Y-84217857D01*
X126397100Y-84146428D01*
X125932814Y-83789285D02*
X126432814Y-83789285D01*
X126682814Y-83789285D02*
X126647100Y-83825000D01*
X126611385Y-83789285D01*
X126647100Y-83753571D01*
X126682814Y-83789285D01*
X126611385Y-83789285D01*
X126432814Y-83539285D02*
X126432814Y-83253571D01*
X126682814Y-83432142D02*
X126039957Y-83432142D01*
X125968528Y-83396428D01*
X125932814Y-83324999D01*
X125932814Y-83253571D01*
X125932814Y-83003571D02*
X126682814Y-83003571D01*
X125932814Y-82682142D02*
X126325671Y-82682142D01*
X126397100Y-82717857D01*
X126432814Y-82789285D01*
X126432814Y-82896428D01*
X126397100Y-82967857D01*
X126361385Y-83003571D01*
X126432814Y-82003571D02*
X125932814Y-82003571D01*
X126432814Y-82324999D02*
X126039957Y-82324999D01*
X125968528Y-82289285D01*
X125932814Y-82217857D01*
X125932814Y-82110714D01*
X125968528Y-82039285D01*
X126004242Y-82003571D01*
X125932814Y-81646428D02*
X126682814Y-81646428D01*
X126397100Y-81646428D02*
X126432814Y-81574999D01*
X126432814Y-81432142D01*
X126397100Y-81360714D01*
X126361385Y-81324999D01*
X126289957Y-81289285D01*
X126075671Y-81289285D01*
X126004242Y-81324999D01*
X125968528Y-81360714D01*
X125932814Y-81432142D01*
X125932814Y-81574999D01*
X125968528Y-81646428D01*
X126004242Y-80967857D02*
X125968528Y-80932142D01*
X125932814Y-80967857D01*
X125968528Y-81003571D01*
X126004242Y-80967857D01*
X125932814Y-80967857D01*
X125968528Y-80289285D02*
X125932814Y-80360714D01*
X125932814Y-80503571D01*
X125968528Y-80574999D01*
X126004242Y-80610714D01*
X126075671Y-80646428D01*
X126289957Y-80646428D01*
X126361385Y-80610714D01*
X126397100Y-80574999D01*
X126432814Y-80503571D01*
X126432814Y-80360714D01*
X126397100Y-80289285D01*
X125932814Y-79860714D02*
X125968528Y-79932142D01*
X126004242Y-79967857D01*
X126075671Y-80003571D01*
X126289957Y-80003571D01*
X126361385Y-79967857D01*
X126397100Y-79932142D01*
X126432814Y-79860714D01*
X126432814Y-79753571D01*
X126397100Y-79682142D01*
X126361385Y-79646428D01*
X126289957Y-79610714D01*
X126075671Y-79610714D01*
X126004242Y-79646428D01*
X125968528Y-79682142D01*
X125932814Y-79753571D01*
X125932814Y-79860714D01*
X125932814Y-79289285D02*
X126432814Y-79289285D01*
X126361385Y-79289285D02*
X126397100Y-79253571D01*
X126432814Y-79182142D01*
X126432814Y-79074999D01*
X126397100Y-79003571D01*
X126325671Y-78967857D01*
X125932814Y-78967857D01*
X126325671Y-78967857D02*
X126397100Y-78932142D01*
X126432814Y-78860714D01*
X126432814Y-78753571D01*
X126397100Y-78682142D01*
X126325671Y-78646428D01*
X125932814Y-78646428D01*
X126718528Y-77753571D02*
X125754242Y-78396428D01*
X126432814Y-77182142D02*
X125825671Y-77182142D01*
X125754242Y-77217857D01*
X125718528Y-77253571D01*
X125682814Y-77324999D01*
X125682814Y-77432142D01*
X125718528Y-77503571D01*
X125968528Y-77182142D02*
X125932814Y-77253571D01*
X125932814Y-77396428D01*
X125968528Y-77467857D01*
X126004242Y-77503571D01*
X126075671Y-77539285D01*
X126289957Y-77539285D01*
X126361385Y-77503571D01*
X126397100Y-77467857D01*
X126432814Y-77396428D01*
X126432814Y-77253571D01*
X126397100Y-77182142D01*
X125932814Y-76824999D02*
X126432814Y-76824999D01*
X126289957Y-76824999D02*
X126361385Y-76789285D01*
X126397100Y-76753571D01*
X126432814Y-76682142D01*
X126432814Y-76610714D01*
X125968528Y-76074999D02*
X125932814Y-76146428D01*
X125932814Y-76289285D01*
X125968528Y-76360714D01*
X126039957Y-76396428D01*
X126325671Y-76396428D01*
X126397100Y-76360714D01*
X126432814Y-76289285D01*
X126432814Y-76146428D01*
X126397100Y-76074999D01*
X126325671Y-76039285D01*
X126254242Y-76039285D01*
X126182814Y-76396428D01*
X126432814Y-75396428D02*
X125825671Y-75396428D01*
X125754242Y-75432142D01*
X125718528Y-75467857D01*
X125682814Y-75539285D01*
X125682814Y-75646428D01*
X125718528Y-75717857D01*
X125968528Y-75396428D02*
X125932814Y-75467857D01*
X125932814Y-75610714D01*
X125968528Y-75682142D01*
X126004242Y-75717857D01*
X126075671Y-75753571D01*
X126289957Y-75753571D01*
X126361385Y-75717857D01*
X126397100Y-75682142D01*
X126432814Y-75610714D01*
X126432814Y-75467857D01*
X126397100Y-75396428D01*
X125932814Y-75039285D02*
X126682814Y-75039285D01*
X126397100Y-75039285D02*
X126432814Y-74967857D01*
X126432814Y-74824999D01*
X126397100Y-74753571D01*
X126361385Y-74717857D01*
X126289957Y-74682142D01*
X126075671Y-74682142D01*
X126004242Y-74717857D01*
X125968528Y-74753571D01*
X125932814Y-74824999D01*
X125932814Y-74967857D01*
X125968528Y-75039285D01*
X125932814Y-74360714D02*
X126432814Y-74360714D01*
X126289957Y-74360714D02*
X126361385Y-74324999D01*
X126397100Y-74289285D01*
X126432814Y-74217857D01*
X126432814Y-74146428D01*
X125932814Y-73896428D02*
X126432814Y-73896428D01*
X126682814Y-73896428D02*
X126647100Y-73932142D01*
X126611385Y-73896428D01*
X126647100Y-73860714D01*
X126682814Y-73896428D01*
X126611385Y-73896428D01*
X125932814Y-73217857D02*
X126682814Y-73217857D01*
X125968528Y-73217857D02*
X125932814Y-73289285D01*
X125932814Y-73432142D01*
X125968528Y-73503571D01*
X126004242Y-73539285D01*
X126075671Y-73574999D01*
X126289957Y-73574999D01*
X126361385Y-73539285D01*
X126397100Y-73503571D01*
X126432814Y-73432142D01*
X126432814Y-73289285D01*
X126397100Y-73217857D01*
X126432814Y-72539285D02*
X125825671Y-72539285D01*
X125754242Y-72574999D01*
X125718528Y-72610714D01*
X125682814Y-72682142D01*
X125682814Y-72789285D01*
X125718528Y-72860714D01*
X125968528Y-72539285D02*
X125932814Y-72610714D01*
X125932814Y-72753571D01*
X125968528Y-72824999D01*
X126004242Y-72860714D01*
X126075671Y-72896428D01*
X126289957Y-72896428D01*
X126361385Y-72860714D01*
X126397100Y-72824999D01*
X126432814Y-72753571D01*
X126432814Y-72610714D01*
X126397100Y-72539285D01*
X125968528Y-71896428D02*
X125932814Y-71967857D01*
X125932814Y-72110714D01*
X125968528Y-72182142D01*
X126039957Y-72217857D01*
X126325671Y-72217857D01*
X126397100Y-72182142D01*
X126432814Y-72110714D01*
X126432814Y-71967857D01*
X126397100Y-71896428D01*
X126325671Y-71860714D01*
X126254242Y-71860714D01*
X126182814Y-72217857D01*
X126718528Y-71003571D02*
X125754242Y-71646428D01*
X126682814Y-70824999D02*
X125932814Y-70646428D01*
X126468528Y-70503571D01*
X125932814Y-70360714D01*
X126682814Y-70182142D01*
X126682814Y-69967857D02*
X125932814Y-69789285D01*
X126468528Y-69646428D01*
X125932814Y-69503571D01*
X126682814Y-69324999D01*
X126682814Y-69039285D02*
X126075671Y-69039285D01*
X126004242Y-69003571D01*
X125968528Y-68967857D01*
X125932814Y-68896428D01*
X125932814Y-68753571D01*
X125968528Y-68682142D01*
X126004242Y-68646428D01*
X126075671Y-68610714D01*
X126682814Y-68610714D01*
X125861385Y-68432142D02*
X125861385Y-67860714D01*
X125932814Y-67253571D02*
X126289957Y-67503571D01*
X125932814Y-67682142D02*
X126682814Y-67682142D01*
X126682814Y-67396428D01*
X126647100Y-67324999D01*
X126611385Y-67289285D01*
X126539957Y-67253571D01*
X126432814Y-67253571D01*
X126361385Y-67289285D01*
X126325671Y-67324999D01*
X126289957Y-67396428D01*
X126289957Y-67682142D01*
X125932814Y-66932142D02*
X126682814Y-66932142D01*
X126682814Y-66646428D01*
X126647100Y-66574999D01*
X126611385Y-66539285D01*
X126539957Y-66503571D01*
X126432814Y-66503571D01*
X126361385Y-66539285D01*
X126325671Y-66574999D01*
X126289957Y-66646428D01*
X126289957Y-66932142D01*
X126682814Y-66253571D02*
X126682814Y-65753571D01*
X125932814Y-66253571D01*
X125932814Y-65753571D01*
X125861385Y-65646428D02*
X125861385Y-65074999D01*
X126682814Y-65003571D02*
X125932814Y-64753571D01*
X126682814Y-64503571D01*
X125932814Y-64253571D02*
X126682814Y-64253571D01*
X125932814Y-63824999D01*
X126682814Y-63824999D01*
X126147100Y-63503571D02*
X126147100Y-63146428D01*
X125932814Y-63574999D02*
X126682814Y-63324999D01*
X125932814Y-63074999D01*
X124707814Y-83914285D02*
X125457814Y-83914285D01*
X124922100Y-83664285D01*
X125457814Y-83414285D01*
X124707814Y-83414285D01*
X124707814Y-82735714D02*
X125100671Y-82735714D01*
X125172100Y-82771428D01*
X125207814Y-82842857D01*
X125207814Y-82985714D01*
X125172100Y-83057142D01*
X124743528Y-82735714D02*
X124707814Y-82807142D01*
X124707814Y-82985714D01*
X124743528Y-83057142D01*
X124814957Y-83092857D01*
X124886385Y-83092857D01*
X124957814Y-83057142D01*
X124993528Y-82985714D01*
X124993528Y-82807142D01*
X125029242Y-82735714D01*
X124707814Y-82057142D02*
X125457814Y-82057142D01*
X124743528Y-82057142D02*
X124707814Y-82128571D01*
X124707814Y-82271428D01*
X124743528Y-82342857D01*
X124779242Y-82378571D01*
X124850671Y-82414285D01*
X125064957Y-82414285D01*
X125136385Y-82378571D01*
X125172100Y-82342857D01*
X125207814Y-82271428D01*
X125207814Y-82128571D01*
X125172100Y-82057142D01*
X124743528Y-81414285D02*
X124707814Y-81485714D01*
X124707814Y-81628571D01*
X124743528Y-81700000D01*
X124814957Y-81735714D01*
X125100671Y-81735714D01*
X125172100Y-81700000D01*
X125207814Y-81628571D01*
X125207814Y-81485714D01*
X125172100Y-81414285D01*
X125100671Y-81378571D01*
X125029242Y-81378571D01*
X124957814Y-81735714D01*
X125207814Y-80592857D02*
X125207814Y-80307142D01*
X124707814Y-80485714D02*
X125350671Y-80485714D01*
X125422100Y-80450000D01*
X125457814Y-80378571D01*
X125457814Y-80307142D01*
X124707814Y-79950000D02*
X124743528Y-80021428D01*
X124779242Y-80057142D01*
X124850671Y-80092857D01*
X125064957Y-80092857D01*
X125136385Y-80057142D01*
X125172100Y-80021428D01*
X125207814Y-79950000D01*
X125207814Y-79842857D01*
X125172100Y-79771428D01*
X125136385Y-79735714D01*
X125064957Y-79700000D01*
X124850671Y-79700000D01*
X124779242Y-79735714D01*
X124743528Y-79771428D01*
X124707814Y-79842857D01*
X124707814Y-79950000D01*
X124707814Y-79378571D02*
X125207814Y-79378571D01*
X125064957Y-79378571D02*
X125136385Y-79342857D01*
X125172100Y-79307142D01*
X125207814Y-79235714D01*
X125207814Y-79164285D01*
X125100671Y-78342857D02*
X125100671Y-78092857D01*
X124707814Y-77985714D02*
X124707814Y-78342857D01*
X125457814Y-78342857D01*
X125457814Y-77985714D01*
X124707814Y-77664285D02*
X125457814Y-77664285D01*
X124707814Y-77235714D01*
X125457814Y-77235714D01*
X125422100Y-76485714D02*
X125457814Y-76557142D01*
X125457814Y-76664285D01*
X125422100Y-76771428D01*
X125350671Y-76842857D01*
X125279242Y-76878571D01*
X125136385Y-76914285D01*
X125029242Y-76914285D01*
X124886385Y-76878571D01*
X124814957Y-76842857D01*
X124743528Y-76771428D01*
X124707814Y-76664285D01*
X124707814Y-76592857D01*
X124743528Y-76485714D01*
X124779242Y-76450000D01*
X125029242Y-76450000D01*
X125029242Y-76592857D01*
X124707814Y-75700000D02*
X125064957Y-75950000D01*
X124707814Y-76128571D02*
X125457814Y-76128571D01*
X125457814Y-75842857D01*
X125422100Y-75771428D01*
X125386385Y-75735714D01*
X125314957Y-75700000D01*
X125207814Y-75700000D01*
X125136385Y-75735714D01*
X125100671Y-75771428D01*
X125064957Y-75842857D01*
X125064957Y-76128571D01*
X125457814Y-74878571D02*
X125457814Y-74414285D01*
X125172100Y-74664285D01*
X125172100Y-74557142D01*
X125136385Y-74485714D01*
X125100671Y-74450000D01*
X125029242Y-74414285D01*
X124850671Y-74414285D01*
X124779242Y-74450000D01*
X124743528Y-74485714D01*
X124707814Y-74557142D01*
X124707814Y-74771428D01*
X124743528Y-74842857D01*
X124779242Y-74878571D01*
X125457814Y-73735714D02*
X125457814Y-74092857D01*
X125100671Y-74128571D01*
X125136385Y-74092857D01*
X125172100Y-74021428D01*
X125172100Y-73842857D01*
X125136385Y-73771428D01*
X125100671Y-73735714D01*
X125029242Y-73700000D01*
X124850671Y-73700000D01*
X124779242Y-73735714D01*
X124743528Y-73771428D01*
X124707814Y-73842857D01*
X124707814Y-74021428D01*
X124743528Y-74092857D01*
X124779242Y-74128571D01*
X125457814Y-73450000D02*
X125457814Y-72950000D01*
X124707814Y-73271428D01*
X124707814Y-72092857D02*
X125457814Y-72092857D01*
X125457814Y-71807142D01*
X125422100Y-71735714D01*
X125386385Y-71700000D01*
X125314957Y-71664285D01*
X125207814Y-71664285D01*
X125136385Y-71700000D01*
X125100671Y-71735714D01*
X125064957Y-71807142D01*
X125064957Y-72092857D01*
X124707814Y-71342857D02*
X125207814Y-71342857D01*
X125064957Y-71342857D02*
X125136385Y-71307142D01*
X125172100Y-71271428D01*
X125207814Y-71200000D01*
X125207814Y-71128571D01*
X124707814Y-70771428D02*
X124743528Y-70842857D01*
X124779242Y-70878571D01*
X124850671Y-70914285D01*
X125064957Y-70914285D01*
X125136385Y-70878571D01*
X125172100Y-70842857D01*
X125207814Y-70771428D01*
X125207814Y-70664285D01*
X125172100Y-70592857D01*
X125136385Y-70557142D01*
X125064957Y-70521428D01*
X124850671Y-70521428D01*
X124779242Y-70557142D01*
X124743528Y-70592857D01*
X124707814Y-70664285D01*
X124707814Y-70771428D01*
X125207814Y-70200000D02*
X124564957Y-70200000D01*
X124493528Y-70235714D01*
X124457814Y-70307142D01*
X124457814Y-70342857D01*
X125457814Y-70200000D02*
X125422100Y-70235714D01*
X125386385Y-70200000D01*
X125422100Y-70164285D01*
X125457814Y-70200000D01*
X125386385Y-70200000D01*
X124743528Y-69557142D02*
X124707814Y-69628571D01*
X124707814Y-69771428D01*
X124743528Y-69842857D01*
X124814957Y-69878571D01*
X125100671Y-69878571D01*
X125172100Y-69842857D01*
X125207814Y-69771428D01*
X125207814Y-69628571D01*
X125172100Y-69557142D01*
X125100671Y-69521428D01*
X125029242Y-69521428D01*
X124957814Y-69878571D01*
X124743528Y-68878571D02*
X124707814Y-68950000D01*
X124707814Y-69092857D01*
X124743528Y-69164285D01*
X124779242Y-69200000D01*
X124850671Y-69235714D01*
X125064957Y-69235714D01*
X125136385Y-69200000D01*
X125172100Y-69164285D01*
X125207814Y-69092857D01*
X125207814Y-68950000D01*
X125172100Y-68878571D01*
X125207814Y-68664285D02*
X125207814Y-68378571D01*
X125457814Y-68557142D02*
X124814957Y-68557142D01*
X124743528Y-68521428D01*
X124707814Y-68450000D01*
X124707814Y-68378571D01*
X124232814Y-84110714D02*
X123482814Y-83932142D01*
X124018528Y-83789285D01*
X123482814Y-83646428D01*
X124232814Y-83467857D01*
X123482814Y-82860714D02*
X123875671Y-82860714D01*
X123947100Y-82896428D01*
X123982814Y-82967857D01*
X123982814Y-83110714D01*
X123947100Y-83182142D01*
X123518528Y-82860714D02*
X123482814Y-82932142D01*
X123482814Y-83110714D01*
X123518528Y-83182142D01*
X123589957Y-83217857D01*
X123661385Y-83217857D01*
X123732814Y-83182142D01*
X123768528Y-83110714D01*
X123768528Y-82932142D01*
X123804242Y-82860714D01*
X123482814Y-82396428D02*
X123518528Y-82467857D01*
X123589957Y-82503571D01*
X124232814Y-82503571D01*
X123482814Y-82003571D02*
X123518528Y-82075000D01*
X123589957Y-82110714D01*
X124232814Y-82110714D01*
X123482814Y-81396428D02*
X123875671Y-81396428D01*
X123947100Y-81432142D01*
X123982814Y-81503571D01*
X123982814Y-81646428D01*
X123947100Y-81717857D01*
X123518528Y-81396428D02*
X123482814Y-81467857D01*
X123482814Y-81646428D01*
X123518528Y-81717857D01*
X123589957Y-81753571D01*
X123661385Y-81753571D01*
X123732814Y-81717857D01*
X123768528Y-81646428D01*
X123768528Y-81467857D01*
X123804242Y-81396428D01*
X124232814Y-80539285D02*
X123482814Y-80360714D01*
X124018528Y-80217857D01*
X123482814Y-80075000D01*
X124232814Y-79896428D01*
X123482814Y-79289285D02*
X123875671Y-79289285D01*
X123947100Y-79325000D01*
X123982814Y-79396428D01*
X123982814Y-79539285D01*
X123947100Y-79610714D01*
X123518528Y-79289285D02*
X123482814Y-79360714D01*
X123482814Y-79539285D01*
X123518528Y-79610714D01*
X123589957Y-79646428D01*
X123661385Y-79646428D01*
X123732814Y-79610714D01*
X123768528Y-79539285D01*
X123768528Y-79360714D01*
X123804242Y-79289285D01*
X123482814Y-78825000D02*
X123518528Y-78896428D01*
X123589957Y-78932142D01*
X124232814Y-78932142D01*
X123482814Y-78432142D02*
X123518528Y-78503571D01*
X123589957Y-78539285D01*
X124232814Y-78539285D01*
X123482814Y-77825000D02*
X123875671Y-77825000D01*
X123947100Y-77860714D01*
X123982814Y-77932142D01*
X123982814Y-78075000D01*
X123947100Y-78146428D01*
X123518528Y-77825000D02*
X123482814Y-77896428D01*
X123482814Y-78075000D01*
X123518528Y-78146428D01*
X123589957Y-78182142D01*
X123661385Y-78182142D01*
X123732814Y-78146428D01*
X123768528Y-78075000D01*
X123768528Y-77896428D01*
X123804242Y-77825000D01*
X124232814Y-76896428D02*
X123625671Y-76896428D01*
X123554242Y-76860714D01*
X123518528Y-76825000D01*
X123482814Y-76753571D01*
X123482814Y-76610714D01*
X123518528Y-76539285D01*
X123554242Y-76503571D01*
X123625671Y-76467857D01*
X124232814Y-76467857D01*
X123982814Y-76110714D02*
X123482814Y-76110714D01*
X123911385Y-76110714D02*
X123947100Y-76075000D01*
X123982814Y-76003571D01*
X123982814Y-75896428D01*
X123947100Y-75825000D01*
X123875671Y-75789285D01*
X123482814Y-75789285D01*
X123482814Y-75432142D02*
X123982814Y-75432142D01*
X124232814Y-75432142D02*
X124197100Y-75467857D01*
X124161385Y-75432142D01*
X124197100Y-75396428D01*
X124232814Y-75432142D01*
X124161385Y-75432142D01*
X123982814Y-75146428D02*
X123482814Y-74967857D01*
X123982814Y-74789285D01*
X123518528Y-74217857D02*
X123482814Y-74289285D01*
X123482814Y-74432142D01*
X123518528Y-74503571D01*
X123589957Y-74539285D01*
X123875671Y-74539285D01*
X123947100Y-74503571D01*
X123982814Y-74432142D01*
X123982814Y-74289285D01*
X123947100Y-74217857D01*
X123875671Y-74182142D01*
X123804242Y-74182142D01*
X123732814Y-74539285D01*
X123482814Y-73860714D02*
X123982814Y-73860714D01*
X123839957Y-73860714D02*
X123911385Y-73825000D01*
X123947100Y-73789285D01*
X123982814Y-73717857D01*
X123982814Y-73646428D01*
X123518528Y-73432142D02*
X123482814Y-73360714D01*
X123482814Y-73217857D01*
X123518528Y-73146428D01*
X123589957Y-73110714D01*
X123625671Y-73110714D01*
X123697100Y-73146428D01*
X123732814Y-73217857D01*
X123732814Y-73325000D01*
X123768528Y-73396428D01*
X123839957Y-73432142D01*
X123875671Y-73432142D01*
X123947100Y-73396428D01*
X123982814Y-73325000D01*
X123982814Y-73217857D01*
X123947100Y-73146428D01*
X123482814Y-72789285D02*
X123982814Y-72789285D01*
X124232814Y-72789285D02*
X124197100Y-72825000D01*
X124161385Y-72789285D01*
X124197100Y-72753571D01*
X124232814Y-72789285D01*
X124161385Y-72789285D01*
X123982814Y-72539285D02*
X123982814Y-72253571D01*
X124232814Y-72432142D02*
X123589957Y-72432142D01*
X123518528Y-72396428D01*
X123482814Y-72325000D01*
X123482814Y-72253571D01*
X123982814Y-72075000D02*
X123482814Y-71896428D01*
X123982814Y-71717857D02*
X123482814Y-71896428D01*
X123304242Y-71967857D01*
X123268528Y-72003571D01*
X123232814Y-72075000D01*
X124161385Y-70896428D02*
X124197100Y-70860714D01*
X124232814Y-70789285D01*
X124232814Y-70610714D01*
X124197100Y-70539285D01*
X124161385Y-70503571D01*
X124089957Y-70467857D01*
X124018528Y-70467857D01*
X123911385Y-70503571D01*
X123482814Y-70932142D01*
X123482814Y-70467857D01*
X124232814Y-70003571D02*
X124232814Y-69932142D01*
X124197100Y-69860714D01*
X124161385Y-69825000D01*
X124089957Y-69789285D01*
X123947100Y-69753571D01*
X123768528Y-69753571D01*
X123625671Y-69789285D01*
X123554242Y-69825000D01*
X123518528Y-69860714D01*
X123482814Y-69932142D01*
X123482814Y-70003571D01*
X123518528Y-70075000D01*
X123554242Y-70110714D01*
X123625671Y-70146428D01*
X123768528Y-70182142D01*
X123947100Y-70182142D01*
X124089957Y-70146428D01*
X124161385Y-70110714D01*
X124197100Y-70075000D01*
X124232814Y-70003571D01*
X123482814Y-69039285D02*
X123482814Y-69467857D01*
X123482814Y-69253571D02*
X124232814Y-69253571D01*
X124125671Y-69325000D01*
X124054242Y-69396428D01*
X124018528Y-69467857D01*
X123482814Y-68682142D02*
X123482814Y-68539285D01*
X123518528Y-68467857D01*
X123554242Y-68432142D01*
X123661385Y-68360714D01*
X123804242Y-68325000D01*
X124089957Y-68325000D01*
X124161385Y-68360714D01*
X124197100Y-68396428D01*
X124232814Y-68467857D01*
X124232814Y-68610714D01*
X124197100Y-68682142D01*
X124161385Y-68717857D01*
X124089957Y-68753571D01*
X123911385Y-68753571D01*
X123839957Y-68717857D01*
X123804242Y-68682142D01*
X123768528Y-68610714D01*
X123768528Y-68467857D01*
X123804242Y-68396428D01*
X123839957Y-68360714D01*
X123911385Y-68325000D01*
X122972100Y-78628571D02*
X123007814Y-78700000D01*
X123007814Y-78807142D01*
X122972100Y-78914285D01*
X122900671Y-78985714D01*
X122829242Y-79021428D01*
X122686385Y-79057142D01*
X122579242Y-79057142D01*
X122436385Y-79021428D01*
X122364957Y-78985714D01*
X122293528Y-78914285D01*
X122257814Y-78807142D01*
X122257814Y-78735714D01*
X122293528Y-78628571D01*
X122329242Y-78592857D01*
X122579242Y-78592857D01*
X122579242Y-78735714D01*
X122257814Y-78271428D02*
X122757814Y-78271428D01*
X122614957Y-78271428D02*
X122686385Y-78235714D01*
X122722100Y-78200000D01*
X122757814Y-78128571D01*
X122757814Y-78057142D01*
X122293528Y-77521428D02*
X122257814Y-77592857D01*
X122257814Y-77735714D01*
X122293528Y-77807142D01*
X122364957Y-77842857D01*
X122650671Y-77842857D01*
X122722100Y-77807142D01*
X122757814Y-77735714D01*
X122757814Y-77592857D01*
X122722100Y-77521428D01*
X122650671Y-77485714D01*
X122579242Y-77485714D01*
X122507814Y-77842857D01*
X122757814Y-76842857D02*
X122150671Y-76842857D01*
X122079242Y-76878571D01*
X122043528Y-76914285D01*
X122007814Y-76985714D01*
X122007814Y-77092857D01*
X122043528Y-77164285D01*
X122293528Y-76842857D02*
X122257814Y-76914285D01*
X122257814Y-77057142D01*
X122293528Y-77128571D01*
X122329242Y-77164285D01*
X122400671Y-77200000D01*
X122614957Y-77200000D01*
X122686385Y-77164285D01*
X122722100Y-77128571D01*
X122757814Y-77057142D01*
X122757814Y-76914285D01*
X122722100Y-76842857D01*
X122650671Y-75664285D02*
X122614957Y-75557142D01*
X122579242Y-75521428D01*
X122507814Y-75485714D01*
X122400671Y-75485714D01*
X122329242Y-75521428D01*
X122293528Y-75557142D01*
X122257814Y-75628571D01*
X122257814Y-75914285D01*
X123007814Y-75914285D01*
X123007814Y-75664285D01*
X122972100Y-75592857D01*
X122936385Y-75557142D01*
X122864957Y-75521428D01*
X122793528Y-75521428D01*
X122722100Y-75557142D01*
X122686385Y-75592857D01*
X122650671Y-75664285D01*
X122650671Y-75914285D01*
X122257814Y-75164285D02*
X122757814Y-75164285D01*
X123007814Y-75164285D02*
X122972100Y-75200000D01*
X122936385Y-75164285D01*
X122972100Y-75128571D01*
X123007814Y-75164285D01*
X122936385Y-75164285D01*
X122257814Y-74807142D02*
X122757814Y-74807142D01*
X122614957Y-74807142D02*
X122686385Y-74771428D01*
X122722100Y-74735714D01*
X122757814Y-74664285D01*
X122757814Y-74592857D01*
X122757814Y-74021428D02*
X122150671Y-74021428D01*
X122079242Y-74057142D01*
X122043528Y-74092857D01*
X122007814Y-74164285D01*
X122007814Y-74271428D01*
X122043528Y-74342857D01*
X122293528Y-74021428D02*
X122257814Y-74092857D01*
X122257814Y-74235714D01*
X122293528Y-74307142D01*
X122329242Y-74342857D01*
X122400671Y-74378571D01*
X122614957Y-74378571D01*
X122686385Y-74342857D01*
X122722100Y-74307142D01*
X122757814Y-74235714D01*
X122757814Y-74092857D01*
X122722100Y-74021428D01*
X122293528Y-73378571D02*
X122257814Y-73450000D01*
X122257814Y-73592857D01*
X122293528Y-73664285D01*
X122364957Y-73700000D01*
X122650671Y-73700000D01*
X122722100Y-73664285D01*
X122757814Y-73592857D01*
X122757814Y-73450000D01*
X122722100Y-73378571D01*
X122650671Y-73342857D01*
X122579242Y-73342857D01*
X122507814Y-73700000D01*
D11*
X139424419Y-85531742D02*
X139900609Y-85865076D01*
X139424419Y-86103171D02*
X140424419Y-86103171D01*
X140424419Y-85722219D01*
X140376800Y-85626980D01*
X140329180Y-85579361D01*
X140233942Y-85531742D01*
X140091085Y-85531742D01*
X139995847Y-85579361D01*
X139948228Y-85626980D01*
X139900609Y-85722219D01*
X139900609Y-86103171D01*
X139424419Y-84674600D02*
X139948228Y-84674600D01*
X140043466Y-84722219D01*
X140091085Y-84817457D01*
X140091085Y-85007933D01*
X140043466Y-85103171D01*
X139472038Y-84674600D02*
X139424419Y-84769838D01*
X139424419Y-85007933D01*
X139472038Y-85103171D01*
X139567276Y-85150790D01*
X139662514Y-85150790D01*
X139757752Y-85103171D01*
X139805371Y-85007933D01*
X139805371Y-84769838D01*
X139852990Y-84674600D01*
X139472038Y-84246028D02*
X139424419Y-84150790D01*
X139424419Y-83960314D01*
X139472038Y-83865076D01*
X139567276Y-83817457D01*
X139614895Y-83817457D01*
X139710133Y-83865076D01*
X139757752Y-83960314D01*
X139757752Y-84103171D01*
X139805371Y-84198409D01*
X139900609Y-84246028D01*
X139948228Y-84246028D01*
X140043466Y-84198409D01*
X140091085Y-84103171D01*
X140091085Y-83960314D01*
X140043466Y-83865076D01*
X140091085Y-83388885D02*
X139091085Y-83388885D01*
X140043466Y-83388885D02*
X140091085Y-83293647D01*
X140091085Y-83103171D01*
X140043466Y-83007933D01*
X139995847Y-82960314D01*
X139900609Y-82912695D01*
X139614895Y-82912695D01*
X139519657Y-82960314D01*
X139472038Y-83007933D01*
X139424419Y-83103171D01*
X139424419Y-83293647D01*
X139472038Y-83388885D01*
X139424419Y-82484123D02*
X140424419Y-82484123D01*
X140043466Y-82484123D02*
X140091085Y-82388885D01*
X140091085Y-82198409D01*
X140043466Y-82103171D01*
X139995847Y-82055552D01*
X139900609Y-82007933D01*
X139614895Y-82007933D01*
X139519657Y-82055552D01*
X139472038Y-82103171D01*
X139424419Y-82198409D01*
X139424419Y-82388885D01*
X139472038Y-82484123D01*
X139472038Y-81198409D02*
X139424419Y-81293647D01*
X139424419Y-81484123D01*
X139472038Y-81579361D01*
X139567276Y-81626980D01*
X139948228Y-81626980D01*
X140043466Y-81579361D01*
X140091085Y-81484123D01*
X140091085Y-81293647D01*
X140043466Y-81198409D01*
X139948228Y-81150790D01*
X139852990Y-81150790D01*
X139757752Y-81626980D01*
X139424419Y-80722219D02*
X140091085Y-80722219D01*
X139900609Y-80722219D02*
X139995847Y-80674600D01*
X140043466Y-80626980D01*
X140091085Y-80531742D01*
X140091085Y-80436504D01*
X139424419Y-80103171D02*
X140091085Y-80103171D01*
X139900609Y-80103171D02*
X139995847Y-80055552D01*
X140043466Y-80007933D01*
X140091085Y-79912695D01*
X140091085Y-79817457D01*
X140091085Y-79579361D02*
X139424419Y-79341266D01*
X140091085Y-79103171D02*
X139424419Y-79341266D01*
X139186323Y-79436504D01*
X139138704Y-79484123D01*
X139091085Y-79579361D01*
X139424419Y-77960314D02*
X140424419Y-77960314D01*
X140424419Y-77579361D01*
X140376800Y-77484123D01*
X140329180Y-77436504D01*
X140233942Y-77388885D01*
X140091085Y-77388885D01*
X139995847Y-77436504D01*
X139948228Y-77484123D01*
X139900609Y-77579361D01*
X139900609Y-77960314D01*
X139424419Y-76960314D02*
X140091085Y-76960314D01*
X140424419Y-76960314D02*
X140376800Y-77007933D01*
X140329180Y-76960314D01*
X140376800Y-76912695D01*
X140424419Y-76960314D01*
X140329180Y-76960314D01*
X139805371Y-76484123D02*
X139805371Y-75722219D01*
X140376800Y-74722219D02*
X140424419Y-74817457D01*
X140424419Y-74960314D01*
X140376800Y-75103171D01*
X140281561Y-75198409D01*
X140186323Y-75246028D01*
X139995847Y-75293647D01*
X139852990Y-75293647D01*
X139662514Y-75246028D01*
X139567276Y-75198409D01*
X139472038Y-75103171D01*
X139424419Y-74960314D01*
X139424419Y-74865076D01*
X139472038Y-74722219D01*
X139519657Y-74674600D01*
X139852990Y-74674600D01*
X139852990Y-74865076D01*
X139424419Y-74246028D02*
X140424419Y-74246028D01*
X140424419Y-73865076D01*
X140376800Y-73769838D01*
X140329180Y-73722219D01*
X140233942Y-73674600D01*
X140091085Y-73674600D01*
X139995847Y-73722219D01*
X139948228Y-73769838D01*
X139900609Y-73865076D01*
X139900609Y-74246028D01*
X139424419Y-73246028D02*
X140424419Y-73246028D01*
X140424419Y-72579361D02*
X140424419Y-72388885D01*
X140376800Y-72293647D01*
X140281561Y-72198409D01*
X140091085Y-72150790D01*
X139757752Y-72150790D01*
X139567276Y-72198409D01*
X139472038Y-72293647D01*
X139424419Y-72388885D01*
X139424419Y-72579361D01*
X139472038Y-72674600D01*
X139567276Y-72769838D01*
X139757752Y-72817457D01*
X140091085Y-72817457D01*
X140281561Y-72769838D01*
X140376800Y-72674600D01*
X140424419Y-72579361D01*
X139424419Y-70960314D02*
X140424419Y-70960314D01*
X139948228Y-70960314D02*
X139948228Y-70388885D01*
X139424419Y-70388885D02*
X140424419Y-70388885D01*
X139472038Y-69531742D02*
X139424419Y-69626980D01*
X139424419Y-69817457D01*
X139472038Y-69912695D01*
X139567276Y-69960314D01*
X139948228Y-69960314D01*
X140043466Y-69912695D01*
X140091085Y-69817457D01*
X140091085Y-69626980D01*
X140043466Y-69531742D01*
X139948228Y-69484123D01*
X139852990Y-69484123D01*
X139757752Y-69960314D01*
X139424419Y-68626980D02*
X139948228Y-68626980D01*
X140043466Y-68674600D01*
X140091085Y-68769838D01*
X140091085Y-68960314D01*
X140043466Y-69055552D01*
X139472038Y-68626980D02*
X139424419Y-68722219D01*
X139424419Y-68960314D01*
X139472038Y-69055552D01*
X139567276Y-69103171D01*
X139662514Y-69103171D01*
X139757752Y-69055552D01*
X139805371Y-68960314D01*
X139805371Y-68722219D01*
X139852990Y-68626980D01*
X139424419Y-67722219D02*
X140424419Y-67722219D01*
X139472038Y-67722219D02*
X139424419Y-67817457D01*
X139424419Y-68007933D01*
X139472038Y-68103171D01*
X139519657Y-68150790D01*
X139614895Y-68198409D01*
X139900609Y-68198409D01*
X139995847Y-68150790D01*
X140043466Y-68103171D01*
X140091085Y-68007933D01*
X140091085Y-67817457D01*
X140043466Y-67722219D01*
X139472038Y-66865076D02*
X139424419Y-66960314D01*
X139424419Y-67150790D01*
X139472038Y-67246028D01*
X139567276Y-67293647D01*
X139948228Y-67293647D01*
X140043466Y-67246028D01*
X140091085Y-67150790D01*
X140091085Y-66960314D01*
X140043466Y-66865076D01*
X139948228Y-66817457D01*
X139852990Y-66817457D01*
X139757752Y-67293647D01*
X139424419Y-66388885D02*
X140091085Y-66388885D01*
X139900609Y-66388885D02*
X139995847Y-66341266D01*
X140043466Y-66293647D01*
X140091085Y-66198409D01*
X140091085Y-66103171D01*
X138774419Y-85222219D02*
X137774419Y-84888885D01*
X138774419Y-84555552D01*
X137822038Y-83841266D02*
X137774419Y-83936504D01*
X137774419Y-84126980D01*
X137822038Y-84222219D01*
X137917276Y-84269838D01*
X138298228Y-84269838D01*
X138393466Y-84222219D01*
X138441085Y-84126980D01*
X138441085Y-83936504D01*
X138393466Y-83841266D01*
X138298228Y-83793647D01*
X138202990Y-83793647D01*
X138107752Y-84269838D01*
X137822038Y-82936504D02*
X137774419Y-83031742D01*
X137774419Y-83222219D01*
X137822038Y-83317457D01*
X137869657Y-83365076D01*
X137964895Y-83412695D01*
X138250609Y-83412695D01*
X138345847Y-83365076D01*
X138393466Y-83317457D01*
X138441085Y-83222219D01*
X138441085Y-83031742D01*
X138393466Y-82936504D01*
X138441085Y-82650790D02*
X138441085Y-82269838D01*
X138774419Y-82507933D02*
X137917276Y-82507933D01*
X137822038Y-82460314D01*
X137774419Y-82365076D01*
X137774419Y-82269838D01*
X137774419Y-81793647D02*
X137822038Y-81888885D01*
X137869657Y-81936504D01*
X137964895Y-81984123D01*
X138250609Y-81984123D01*
X138345847Y-81936504D01*
X138393466Y-81888885D01*
X138441085Y-81793647D01*
X138441085Y-81650790D01*
X138393466Y-81555552D01*
X138345847Y-81507933D01*
X138250609Y-81460314D01*
X137964895Y-81460314D01*
X137869657Y-81507933D01*
X137822038Y-81555552D01*
X137774419Y-81650790D01*
X137774419Y-81793647D01*
X137774419Y-81031742D02*
X138441085Y-81031742D01*
X138250609Y-81031742D02*
X138345847Y-80984123D01*
X138393466Y-80936504D01*
X138441085Y-80841266D01*
X138441085Y-80746028D01*
X137774419Y-79650790D02*
X138774419Y-79650790D01*
X137774419Y-79079361D01*
X138774419Y-79079361D01*
X137822038Y-78222219D02*
X137774419Y-78317457D01*
X137774419Y-78507933D01*
X137822038Y-78603171D01*
X137917276Y-78650790D01*
X138298228Y-78650790D01*
X138393466Y-78603171D01*
X138441085Y-78507933D01*
X138441085Y-78317457D01*
X138393466Y-78222219D01*
X138298228Y-78174600D01*
X138202990Y-78174600D01*
X138107752Y-78650790D01*
X138441085Y-77888885D02*
X138441085Y-77507933D01*
X138774419Y-77746028D02*
X137917276Y-77746028D01*
X137822038Y-77698409D01*
X137774419Y-77603171D01*
X137774419Y-77507933D01*
X138441085Y-77269838D02*
X137774419Y-77079361D01*
X138250609Y-76888885D01*
X137774419Y-76698409D01*
X138441085Y-76507933D01*
X137774419Y-75984123D02*
X137822038Y-76079361D01*
X137869657Y-76126980D01*
X137964895Y-76174600D01*
X138250609Y-76174600D01*
X138345847Y-76126980D01*
X138393466Y-76079361D01*
X138441085Y-75984123D01*
X138441085Y-75841266D01*
X138393466Y-75746028D01*
X138345847Y-75698409D01*
X138250609Y-75650790D01*
X137964895Y-75650790D01*
X137869657Y-75698409D01*
X137822038Y-75746028D01*
X137774419Y-75841266D01*
X137774419Y-75984123D01*
X137774419Y-75222219D02*
X138441085Y-75222219D01*
X138250609Y-75222219D02*
X138345847Y-75174600D01*
X138393466Y-75126980D01*
X138441085Y-75031742D01*
X138441085Y-74936504D01*
X137774419Y-74603171D02*
X138774419Y-74603171D01*
X138155371Y-74507933D02*
X137774419Y-74222219D01*
X138441085Y-74222219D02*
X138060133Y-74603171D01*
X138060133Y-73079361D02*
X138060133Y-72603171D01*
X137774419Y-73174600D02*
X138774419Y-72841266D01*
X137774419Y-72507933D01*
X138441085Y-72174600D02*
X137774419Y-72174600D01*
X138345847Y-72174600D02*
X138393466Y-72126980D01*
X138441085Y-72031742D01*
X138441085Y-71888885D01*
X138393466Y-71793647D01*
X138298228Y-71746028D01*
X137774419Y-71746028D01*
X137774419Y-70841266D02*
X138298228Y-70841266D01*
X138393466Y-70888885D01*
X138441085Y-70984123D01*
X138441085Y-71174600D01*
X138393466Y-71269838D01*
X137822038Y-70841266D02*
X137774419Y-70936504D01*
X137774419Y-71174600D01*
X137822038Y-71269838D01*
X137917276Y-71317457D01*
X138012514Y-71317457D01*
X138107752Y-71269838D01*
X138155371Y-71174600D01*
X138155371Y-70936504D01*
X138202990Y-70841266D01*
X137774419Y-70222219D02*
X137822038Y-70317457D01*
X137917276Y-70365076D01*
X138774419Y-70365076D01*
X138441085Y-69936504D02*
X137774419Y-69698409D01*
X138441085Y-69460314D02*
X137774419Y-69698409D01*
X137536323Y-69793647D01*
X137488704Y-69841266D01*
X137441085Y-69936504D01*
X138441085Y-69174600D02*
X138441085Y-68650790D01*
X137774419Y-69174600D01*
X137774419Y-68650790D01*
X137822038Y-67888885D02*
X137774419Y-67984123D01*
X137774419Y-68174600D01*
X137822038Y-68269838D01*
X137917276Y-68317457D01*
X138298228Y-68317457D01*
X138393466Y-68269838D01*
X138441085Y-68174600D01*
X138441085Y-67984123D01*
X138393466Y-67888885D01*
X138298228Y-67841266D01*
X138202990Y-67841266D01*
X138107752Y-68317457D01*
X137774419Y-67412695D02*
X138441085Y-67412695D01*
X138250609Y-67412695D02*
X138345847Y-67365076D01*
X138393466Y-67317457D01*
X138441085Y-67222219D01*
X138441085Y-67126980D01*
X136124419Y-83936504D02*
X136600609Y-84269838D01*
X136124419Y-84507933D02*
X137124419Y-84507933D01*
X137124419Y-84126980D01*
X137076800Y-84031742D01*
X137029180Y-83984123D01*
X136933942Y-83936504D01*
X136791085Y-83936504D01*
X136695847Y-83984123D01*
X136648228Y-84031742D01*
X136600609Y-84126980D01*
X136600609Y-84507933D01*
X136124419Y-83079361D02*
X136648228Y-83079361D01*
X136743466Y-83126980D01*
X136791085Y-83222219D01*
X136791085Y-83412695D01*
X136743466Y-83507933D01*
X136172038Y-83079361D02*
X136124419Y-83174600D01*
X136124419Y-83412695D01*
X136172038Y-83507933D01*
X136267276Y-83555552D01*
X136362514Y-83555552D01*
X136457752Y-83507933D01*
X136505371Y-83412695D01*
X136505371Y-83174600D01*
X136552990Y-83079361D01*
X136172038Y-82650790D02*
X136124419Y-82555552D01*
X136124419Y-82365076D01*
X136172038Y-82269838D01*
X136267276Y-82222219D01*
X136314895Y-82222219D01*
X136410133Y-82269838D01*
X136457752Y-82365076D01*
X136457752Y-82507933D01*
X136505371Y-82603171D01*
X136600609Y-82650790D01*
X136648228Y-82650790D01*
X136743466Y-82603171D01*
X136791085Y-82507933D01*
X136791085Y-82365076D01*
X136743466Y-82269838D01*
X136791085Y-81793647D02*
X135791085Y-81793647D01*
X136743466Y-81793647D02*
X136791085Y-81698409D01*
X136791085Y-81507933D01*
X136743466Y-81412695D01*
X136695847Y-81365076D01*
X136600609Y-81317457D01*
X136314895Y-81317457D01*
X136219657Y-81365076D01*
X136172038Y-81412695D01*
X136124419Y-81507933D01*
X136124419Y-81698409D01*
X136172038Y-81793647D01*
X136124419Y-80888885D02*
X137124419Y-80888885D01*
X136743466Y-80888885D02*
X136791085Y-80793647D01*
X136791085Y-80603171D01*
X136743466Y-80507933D01*
X136695847Y-80460314D01*
X136600609Y-80412695D01*
X136314895Y-80412695D01*
X136219657Y-80460314D01*
X136172038Y-80507933D01*
X136124419Y-80603171D01*
X136124419Y-80793647D01*
X136172038Y-80888885D01*
X136172038Y-79603171D02*
X136124419Y-79698409D01*
X136124419Y-79888885D01*
X136172038Y-79984123D01*
X136267276Y-80031742D01*
X136648228Y-80031742D01*
X136743466Y-79984123D01*
X136791085Y-79888885D01*
X136791085Y-79698409D01*
X136743466Y-79603171D01*
X136648228Y-79555552D01*
X136552990Y-79555552D01*
X136457752Y-80031742D01*
X136124419Y-79126980D02*
X136791085Y-79126980D01*
X136600609Y-79126980D02*
X136695847Y-79079361D01*
X136743466Y-79031742D01*
X136791085Y-78936504D01*
X136791085Y-78841266D01*
X136124419Y-78507933D02*
X136791085Y-78507933D01*
X136600609Y-78507933D02*
X136695847Y-78460314D01*
X136743466Y-78412695D01*
X136791085Y-78317457D01*
X136791085Y-78222219D01*
X136791085Y-77984123D02*
X136124419Y-77746028D01*
X136791085Y-77507933D02*
X136124419Y-77746028D01*
X135886323Y-77841266D01*
X135838704Y-77888885D01*
X135791085Y-77984123D01*
X136124419Y-76365076D02*
X137124419Y-76365076D01*
X137124419Y-75984123D01*
X137076800Y-75888885D01*
X137029180Y-75841266D01*
X136933942Y-75793647D01*
X136791085Y-75793647D01*
X136695847Y-75841266D01*
X136648228Y-75888885D01*
X136600609Y-75984123D01*
X136600609Y-76365076D01*
X136124419Y-75365076D02*
X136791085Y-75365076D01*
X137124419Y-75365076D02*
X137076800Y-75412695D01*
X137029180Y-75365076D01*
X137076800Y-75317457D01*
X137124419Y-75365076D01*
X137029180Y-75365076D01*
X137124419Y-74222219D02*
X137124419Y-73555552D01*
X136124419Y-74222219D01*
X136124419Y-73555552D01*
X136172038Y-72793647D02*
X136124419Y-72888885D01*
X136124419Y-73079361D01*
X136172038Y-73174600D01*
X136267276Y-73222219D01*
X136648228Y-73222219D01*
X136743466Y-73174600D01*
X136791085Y-73079361D01*
X136791085Y-72888885D01*
X136743466Y-72793647D01*
X136648228Y-72746028D01*
X136552990Y-72746028D01*
X136457752Y-73222219D01*
X136124419Y-72317457D02*
X136791085Y-72317457D01*
X136600609Y-72317457D02*
X136695847Y-72269838D01*
X136743466Y-72222219D01*
X136791085Y-72126980D01*
X136791085Y-72031742D01*
X136124419Y-71555552D02*
X136172038Y-71650790D01*
X136219657Y-71698409D01*
X136314895Y-71746028D01*
X136600609Y-71746028D01*
X136695847Y-71698409D01*
X136743466Y-71650790D01*
X136791085Y-71555552D01*
X136791085Y-71412695D01*
X136743466Y-71317457D01*
X136695847Y-71269838D01*
X136600609Y-71222219D01*
X136314895Y-71222219D01*
X136219657Y-71269838D01*
X136172038Y-71317457D01*
X136124419Y-71412695D01*
X136124419Y-71555552D01*
X136124419Y-70031742D02*
X137124419Y-70031742D01*
X136648228Y-70031742D02*
X136648228Y-69460314D01*
X136124419Y-69460314D02*
X137124419Y-69460314D01*
X136410133Y-69031742D02*
X136410133Y-68555552D01*
X136124419Y-69126980D02*
X137124419Y-68793647D01*
X136124419Y-68460314D01*
X137124419Y-68269838D02*
X137124419Y-67698409D01*
X136124419Y-67984123D02*
X137124419Y-67984123D01*
D12*
X104821500Y-51533000D02*
X104821500Y-47843000D01*
X104821500Y-62953000D02*
X104821500Y-51533000D01*
X104821500Y-82183000D02*
X104821500Y-62953000D01*
X104821500Y-94783000D02*
X104821500Y-90303000D01*
X104821500Y-90303000D02*
X104821500Y-82183000D01*
X104821500Y-102903000D02*
X104821500Y-94783000D01*
X128441500Y-109903000D02*
X131881500Y-109903000D01*
X111321500Y-111103000D02*
X111321500Y-109903000D01*
X128441500Y-111103000D02*
X111321500Y-111103000D01*
X128441500Y-109903000D02*
X128441500Y-111103000D01*
X133981500Y-51883000D02*
X133981500Y-102803000D01*
X133981500Y-51883000D02*
X131381500Y-51883000D01*
X131381500Y-51883000D02*
X131381500Y-54483000D01*
X131381500Y-54483000D02*
X128781500Y-54483000D01*
X130111500Y-51883000D02*
X128781500Y-51883000D01*
X128781500Y-51883000D02*
X128781500Y-53213000D01*
X128781500Y-54483000D02*
X128781500Y-102803000D01*
X133981500Y-102803000D02*
X128781500Y-102803000D01*
X107881500Y-109903000D02*
G75*
G02X104821500Y-106843000I0J3060000D01*
G01*
X111321500Y-109903000D02*
X107881500Y-109903000D01*
X104821500Y-106843000D02*
X104821500Y-102903000D01*
X131881500Y-44783000D02*
X107881500Y-44783000D01*
X134941500Y-106843000D02*
X134941500Y-47843000D01*
X134941500Y-106843000D02*
G75*
G02X131881500Y-109903000I-3060000J0D01*
G01*
X131881500Y-44783000D02*
G75*
G02X134941500Y-47843000I0J-3060000D01*
G01*
X104821500Y-47843000D02*
G75*
G02X107881500Y-44783000I3060000J0D01*
G01*
M02*
