M48
; DRILL file {KiCad 5.1.2-f72e74a~84~ubuntu18.04.1} date Fri 17 May 2019 01:13:16 PM PDT
; FORMAT={-:-/ absolute / inch / decimal}
; #@! TF.CreationDate,2019-05-17T13:13:16-07:00
; #@! TF.GenerationSoftware,Kicad,Pcbnew,5.1.2-f72e74a~84~ubuntu18.04.1
; #@! TF.FileFunction,Plated,1,2,PTH
FMAT,2
INCH
T1C0.0157
T2C0.0197
T3C0.0394
T4C0.0472
%
G90
G05
T1
X4.5Y-2.94
X4.62Y-3.04
X4.86Y-3.66
X5.04Y-3.08
X5.06Y-2.26
X5.3Y-2.36
X5.32Y-2.64
X5.32Y-2.64
X5.3419Y-3.0181
X5.36Y-2.52
X5.36Y-3.66
X5.44Y-3.52
X5.46Y-2.56
X5.46Y-3.48
X5.48Y-2.68
X5.5Y-2.52
X5.5Y-2.82
X5.5Y-3.24
X5.5Y-3.44
X5.52Y-3.56
X5.58Y-3.42
X5.6Y-2.625
X5.6Y-2.8485
X5.6Y-3.46
X5.6065Y-2.9465
X5.6222Y-3.12
X5.64Y-3.06
X5.6413Y-2.8987
X5.6417Y-2.6417
X5.6633Y-2.82
X5.68Y-2.6
X5.6861Y-2.6939
X5.725Y-2.975
X5.775Y-2.816
T2
X5.425Y-4.125
X5.6Y-2.78
X5.75Y-3.275
X5.75Y-2.75
X5.775Y-2.6
T3
X5.1225Y-2.095
X5.1225Y-2.195
X5.1225Y-2.295
X5.1225Y-2.395
X5.1225Y-2.495
X5.1225Y-2.595
X5.1225Y-2.695
X5.1225Y-2.795
X5.1225Y-2.895
X5.1225Y-2.995
X5.1225Y-3.095
X5.1225Y-3.195
X5.1225Y-3.295
X5.1225Y-3.395
X5.1225Y-3.495
X5.1225Y-3.595
X5.1225Y-3.695
X5.1225Y-3.795
X5.1225Y-3.895
X5.1225Y-3.995
X5.2225Y-2.095
X5.2225Y-2.195
X5.2225Y-2.295
X5.2225Y-2.395
X5.2225Y-2.495
X5.2225Y-2.595
X5.2225Y-2.695
X5.2225Y-2.795
X5.2225Y-2.895
X5.2225Y-2.995
X5.2225Y-3.095
X5.2225Y-3.195
X5.2225Y-3.295
X5.2225Y-3.395
X5.2225Y-3.495
X5.2225Y-3.595
X5.2225Y-3.695
X5.2225Y-3.795
X5.2225Y-3.895
X5.2225Y-3.995
T4
X4.1792Y-3.012
X4.3763Y-2.8151
X4.3763Y-2.9136
X4.3763Y-3.1104
X4.3763Y-3.2089
T0
M30
