G04 #@! TF.GenerationSoftware,KiCad,Pcbnew,5.1.2-f72e74a~84~ubuntu18.04.1*
G04 #@! TF.CreationDate,2019-05-17T13:13:24-07:00*
G04 #@! TF.ProjectId,RPZ_SC_VNA,52505a5f-5343-45f5-964e-412e6b696361,rev?*
G04 #@! TF.SameCoordinates,Original*
G04 #@! TF.FileFunction,Soldermask,Bot*
G04 #@! TF.FilePolarity,Negative*
%FSLAX46Y46*%
G04 Gerber Fmt 4.6, Leading zero omitted, Abs format (unit mm)*
G04 Created by KiCad (PCBNEW 5.1.2-f72e74a~84~ubuntu18.04.1) date 2019-05-17 13:13:24*
%MOMM*%
%LPD*%
G04 APERTURE LIST*
%ADD10C,0.100000*%
G04 APERTURE END LIST*
D10*
G36*
X132063370Y-103419859D02*
G01*
X132256568Y-103458288D01*
X132802533Y-103684434D01*
X133049878Y-103849705D01*
X133293888Y-104012747D01*
X133711753Y-104430612D01*
X133767474Y-104514005D01*
X134040066Y-104921967D01*
X134266212Y-105467932D01*
X134381500Y-106047526D01*
X134381500Y-106638474D01*
X134266212Y-107218068D01*
X134040066Y-107764033D01*
X133711752Y-108255389D01*
X133293889Y-108673252D01*
X132802533Y-109001566D01*
X132256568Y-109227712D01*
X132063370Y-109266141D01*
X131676976Y-109343000D01*
X131086024Y-109343000D01*
X130699630Y-109266141D01*
X130506432Y-109227712D01*
X129960467Y-109001566D01*
X129469111Y-108673252D01*
X129051248Y-108255389D01*
X128722934Y-107764033D01*
X128496788Y-107218068D01*
X128381500Y-106638474D01*
X128381500Y-106047526D01*
X128496788Y-105467932D01*
X128722934Y-104921967D01*
X128995526Y-104514005D01*
X129051247Y-104430612D01*
X129469112Y-104012747D01*
X129713122Y-103849705D01*
X129960467Y-103684434D01*
X130506432Y-103458288D01*
X130699630Y-103419859D01*
X131086024Y-103343000D01*
X131676976Y-103343000D01*
X132063370Y-103419859D01*
X132063370Y-103419859D01*
G37*
G36*
X109063370Y-103419859D02*
G01*
X109256568Y-103458288D01*
X109802533Y-103684434D01*
X110049878Y-103849705D01*
X110293888Y-104012747D01*
X110711753Y-104430612D01*
X110767474Y-104514005D01*
X111040066Y-104921967D01*
X111266212Y-105467932D01*
X111381500Y-106047526D01*
X111381500Y-106638474D01*
X111266212Y-107218068D01*
X111040066Y-107764033D01*
X110711752Y-108255389D01*
X110293889Y-108673252D01*
X109802533Y-109001566D01*
X109256568Y-109227712D01*
X109063370Y-109266141D01*
X108676976Y-109343000D01*
X108086024Y-109343000D01*
X107699630Y-109266141D01*
X107506432Y-109227712D01*
X106960467Y-109001566D01*
X106469111Y-108673252D01*
X106051248Y-108255389D01*
X105722934Y-107764033D01*
X105496788Y-107218068D01*
X105381500Y-106638474D01*
X105381500Y-106047526D01*
X105496788Y-105467932D01*
X105722934Y-104921967D01*
X105995526Y-104514005D01*
X106051247Y-104430612D01*
X106469112Y-104012747D01*
X106713122Y-103849705D01*
X106960467Y-103684434D01*
X107506432Y-103458288D01*
X107699630Y-103419859D01*
X108086024Y-103343000D01*
X108676976Y-103343000D01*
X109063370Y-103419859D01*
X109063370Y-103419859D01*
G37*
G36*
X137955721Y-104245174D02*
G01*
X138055995Y-104286709D01*
X138055996Y-104286710D01*
X138146242Y-104347010D01*
X138222990Y-104423758D01*
X138253345Y-104469188D01*
X138283291Y-104514005D01*
X138324826Y-104614279D01*
X138346000Y-104720730D01*
X138346000Y-104829270D01*
X138324826Y-104935721D01*
X138283291Y-105035995D01*
X138283290Y-105035996D01*
X138222990Y-105126242D01*
X138146242Y-105202990D01*
X138100812Y-105233345D01*
X138055995Y-105263291D01*
X137955721Y-105304826D01*
X137849270Y-105326000D01*
X137740730Y-105326000D01*
X137634279Y-105304826D01*
X137534005Y-105263291D01*
X137489188Y-105233345D01*
X137443758Y-105202990D01*
X137367010Y-105126242D01*
X137306710Y-105035996D01*
X137306709Y-105035995D01*
X137265174Y-104935721D01*
X137244000Y-104829270D01*
X137244000Y-104720730D01*
X137265174Y-104614279D01*
X137306709Y-104514005D01*
X137336655Y-104469188D01*
X137367010Y-104423758D01*
X137443758Y-104347010D01*
X137534004Y-104286710D01*
X137534005Y-104286709D01*
X137634279Y-104245174D01*
X137740730Y-104224000D01*
X137849270Y-104224000D01*
X137955721Y-104245174D01*
X137955721Y-104245174D01*
G37*
G36*
X130221943Y-100578519D02*
G01*
X130288127Y-100585037D01*
X130457966Y-100636557D01*
X130614491Y-100720222D01*
X130650229Y-100749552D01*
X130751686Y-100832814D01*
X130834948Y-100934271D01*
X130864278Y-100970009D01*
X130947943Y-101126534D01*
X130999463Y-101296373D01*
X131016859Y-101473000D01*
X130999463Y-101649627D01*
X130947943Y-101819466D01*
X130864278Y-101975991D01*
X130834948Y-102011729D01*
X130751686Y-102113186D01*
X130650229Y-102196448D01*
X130614491Y-102225778D01*
X130457966Y-102309443D01*
X130288127Y-102360963D01*
X130221943Y-102367481D01*
X130155760Y-102374000D01*
X130067240Y-102374000D01*
X130001058Y-102367482D01*
X129934873Y-102360963D01*
X129765034Y-102309443D01*
X129608509Y-102225778D01*
X129572771Y-102196448D01*
X129471314Y-102113186D01*
X129388052Y-102011729D01*
X129358722Y-101975991D01*
X129275057Y-101819466D01*
X129223537Y-101649627D01*
X129206141Y-101473000D01*
X129223537Y-101296373D01*
X129275057Y-101126534D01*
X129358722Y-100970009D01*
X129388052Y-100934271D01*
X129471314Y-100832814D01*
X129572771Y-100749552D01*
X129608509Y-100720222D01*
X129765034Y-100636557D01*
X129934873Y-100585037D01*
X130001058Y-100578518D01*
X130067240Y-100572000D01*
X130155760Y-100572000D01*
X130221943Y-100578519D01*
X130221943Y-100578519D01*
G37*
G36*
X132761943Y-100578519D02*
G01*
X132828127Y-100585037D01*
X132997966Y-100636557D01*
X133154491Y-100720222D01*
X133190229Y-100749552D01*
X133291686Y-100832814D01*
X133374948Y-100934271D01*
X133404278Y-100970009D01*
X133487943Y-101126534D01*
X133539463Y-101296373D01*
X133556859Y-101473000D01*
X133539463Y-101649627D01*
X133487943Y-101819466D01*
X133404278Y-101975991D01*
X133374948Y-102011729D01*
X133291686Y-102113186D01*
X133190229Y-102196448D01*
X133154491Y-102225778D01*
X132997966Y-102309443D01*
X132828127Y-102360963D01*
X132761943Y-102367481D01*
X132695760Y-102374000D01*
X132607240Y-102374000D01*
X132541058Y-102367482D01*
X132474873Y-102360963D01*
X132305034Y-102309443D01*
X132148509Y-102225778D01*
X132112771Y-102196448D01*
X132011314Y-102113186D01*
X131928052Y-102011729D01*
X131898722Y-101975991D01*
X131815057Y-101819466D01*
X131763537Y-101649627D01*
X131746141Y-101473000D01*
X131763537Y-101296373D01*
X131815057Y-101126534D01*
X131898722Y-100970009D01*
X131928052Y-100934271D01*
X132011314Y-100832814D01*
X132112771Y-100749552D01*
X132148509Y-100720222D01*
X132305034Y-100636557D01*
X132474873Y-100585037D01*
X132541058Y-100578518D01*
X132607240Y-100572000D01*
X132695760Y-100572000D01*
X132761943Y-100578519D01*
X132761943Y-100578519D01*
G37*
G36*
X132761942Y-98038518D02*
G01*
X132828127Y-98045037D01*
X132997966Y-98096557D01*
X133154491Y-98180222D01*
X133190229Y-98209552D01*
X133291686Y-98292814D01*
X133374948Y-98394271D01*
X133404278Y-98430009D01*
X133487943Y-98586534D01*
X133539463Y-98756373D01*
X133556859Y-98933000D01*
X133539463Y-99109627D01*
X133487943Y-99279466D01*
X133404278Y-99435991D01*
X133374948Y-99471729D01*
X133291686Y-99573186D01*
X133190229Y-99656448D01*
X133154491Y-99685778D01*
X132997966Y-99769443D01*
X132828127Y-99820963D01*
X132761942Y-99827482D01*
X132695760Y-99834000D01*
X132607240Y-99834000D01*
X132541058Y-99827482D01*
X132474873Y-99820963D01*
X132305034Y-99769443D01*
X132148509Y-99685778D01*
X132112771Y-99656448D01*
X132011314Y-99573186D01*
X131928052Y-99471729D01*
X131898722Y-99435991D01*
X131815057Y-99279466D01*
X131763537Y-99109627D01*
X131746141Y-98933000D01*
X131763537Y-98756373D01*
X131815057Y-98586534D01*
X131898722Y-98430009D01*
X131928052Y-98394271D01*
X132011314Y-98292814D01*
X132112771Y-98209552D01*
X132148509Y-98180222D01*
X132305034Y-98096557D01*
X132474873Y-98045037D01*
X132541058Y-98038518D01*
X132607240Y-98032000D01*
X132695760Y-98032000D01*
X132761942Y-98038518D01*
X132761942Y-98038518D01*
G37*
G36*
X130221942Y-98038518D02*
G01*
X130288127Y-98045037D01*
X130457966Y-98096557D01*
X130614491Y-98180222D01*
X130650229Y-98209552D01*
X130751686Y-98292814D01*
X130834948Y-98394271D01*
X130864278Y-98430009D01*
X130947943Y-98586534D01*
X130999463Y-98756373D01*
X131016859Y-98933000D01*
X130999463Y-99109627D01*
X130947943Y-99279466D01*
X130864278Y-99435991D01*
X130834948Y-99471729D01*
X130751686Y-99573186D01*
X130650229Y-99656448D01*
X130614491Y-99685778D01*
X130457966Y-99769443D01*
X130288127Y-99820963D01*
X130221942Y-99827482D01*
X130155760Y-99834000D01*
X130067240Y-99834000D01*
X130001058Y-99827482D01*
X129934873Y-99820963D01*
X129765034Y-99769443D01*
X129608509Y-99685778D01*
X129572771Y-99656448D01*
X129471314Y-99573186D01*
X129388052Y-99471729D01*
X129358722Y-99435991D01*
X129275057Y-99279466D01*
X129223537Y-99109627D01*
X129206141Y-98933000D01*
X129223537Y-98756373D01*
X129275057Y-98586534D01*
X129358722Y-98430009D01*
X129388052Y-98394271D01*
X129471314Y-98292814D01*
X129572771Y-98209552D01*
X129608509Y-98180222D01*
X129765034Y-98096557D01*
X129934873Y-98045037D01*
X130001058Y-98038518D01*
X130067240Y-98032000D01*
X130155760Y-98032000D01*
X130221942Y-98038518D01*
X130221942Y-98038518D01*
G37*
G36*
X132761942Y-95498518D02*
G01*
X132828127Y-95505037D01*
X132997966Y-95556557D01*
X133154491Y-95640222D01*
X133190229Y-95669552D01*
X133291686Y-95752814D01*
X133374948Y-95854271D01*
X133404278Y-95890009D01*
X133487943Y-96046534D01*
X133539463Y-96216373D01*
X133556859Y-96393000D01*
X133539463Y-96569627D01*
X133487943Y-96739466D01*
X133404278Y-96895991D01*
X133374948Y-96931729D01*
X133291686Y-97033186D01*
X133190229Y-97116448D01*
X133154491Y-97145778D01*
X132997966Y-97229443D01*
X132828127Y-97280963D01*
X132761943Y-97287481D01*
X132695760Y-97294000D01*
X132607240Y-97294000D01*
X132541058Y-97287482D01*
X132474873Y-97280963D01*
X132305034Y-97229443D01*
X132148509Y-97145778D01*
X132112771Y-97116448D01*
X132011314Y-97033186D01*
X131928052Y-96931729D01*
X131898722Y-96895991D01*
X131815057Y-96739466D01*
X131763537Y-96569627D01*
X131746141Y-96393000D01*
X131763537Y-96216373D01*
X131815057Y-96046534D01*
X131898722Y-95890009D01*
X131928052Y-95854271D01*
X132011314Y-95752814D01*
X132112771Y-95669552D01*
X132148509Y-95640222D01*
X132305034Y-95556557D01*
X132474873Y-95505037D01*
X132541057Y-95498519D01*
X132607240Y-95492000D01*
X132695760Y-95492000D01*
X132761942Y-95498518D01*
X132761942Y-95498518D01*
G37*
G36*
X130221942Y-95498518D02*
G01*
X130288127Y-95505037D01*
X130457966Y-95556557D01*
X130614491Y-95640222D01*
X130650229Y-95669552D01*
X130751686Y-95752814D01*
X130834948Y-95854271D01*
X130864278Y-95890009D01*
X130947943Y-96046534D01*
X130999463Y-96216373D01*
X131016859Y-96393000D01*
X130999463Y-96569627D01*
X130947943Y-96739466D01*
X130864278Y-96895991D01*
X130834948Y-96931729D01*
X130751686Y-97033186D01*
X130650229Y-97116448D01*
X130614491Y-97145778D01*
X130457966Y-97229443D01*
X130288127Y-97280963D01*
X130221943Y-97287481D01*
X130155760Y-97294000D01*
X130067240Y-97294000D01*
X130001058Y-97287482D01*
X129934873Y-97280963D01*
X129765034Y-97229443D01*
X129608509Y-97145778D01*
X129572771Y-97116448D01*
X129471314Y-97033186D01*
X129388052Y-96931729D01*
X129358722Y-96895991D01*
X129275057Y-96739466D01*
X129223537Y-96569627D01*
X129206141Y-96393000D01*
X129223537Y-96216373D01*
X129275057Y-96046534D01*
X129358722Y-95890009D01*
X129388052Y-95854271D01*
X129471314Y-95752814D01*
X129572771Y-95669552D01*
X129608509Y-95640222D01*
X129765034Y-95556557D01*
X129934873Y-95505037D01*
X130001057Y-95498519D01*
X130067240Y-95492000D01*
X130155760Y-95492000D01*
X130221942Y-95498518D01*
X130221942Y-95498518D01*
G37*
G36*
X147625000Y-95598180D02*
G01*
X142951000Y-95598180D01*
X142951000Y-92194180D01*
X147625000Y-92194180D01*
X147625000Y-95598180D01*
X147625000Y-95598180D01*
G37*
G36*
X132761942Y-92958518D02*
G01*
X132828127Y-92965037D01*
X132997966Y-93016557D01*
X133154491Y-93100222D01*
X133190229Y-93129552D01*
X133291686Y-93212814D01*
X133374948Y-93314271D01*
X133404278Y-93350009D01*
X133487943Y-93506534D01*
X133539463Y-93676373D01*
X133556859Y-93853000D01*
X133539463Y-94029627D01*
X133487943Y-94199466D01*
X133404278Y-94355991D01*
X133374948Y-94391729D01*
X133291686Y-94493186D01*
X133190229Y-94576448D01*
X133154491Y-94605778D01*
X132997966Y-94689443D01*
X132828127Y-94740963D01*
X132761942Y-94747482D01*
X132695760Y-94754000D01*
X132607240Y-94754000D01*
X132541057Y-94747481D01*
X132474873Y-94740963D01*
X132305034Y-94689443D01*
X132148509Y-94605778D01*
X132112771Y-94576448D01*
X132011314Y-94493186D01*
X131928052Y-94391729D01*
X131898722Y-94355991D01*
X131815057Y-94199466D01*
X131763537Y-94029627D01*
X131746141Y-93853000D01*
X131763537Y-93676373D01*
X131815057Y-93506534D01*
X131898722Y-93350009D01*
X131928052Y-93314271D01*
X132011314Y-93212814D01*
X132112771Y-93129552D01*
X132148509Y-93100222D01*
X132305034Y-93016557D01*
X132474873Y-92965037D01*
X132541058Y-92958518D01*
X132607240Y-92952000D01*
X132695760Y-92952000D01*
X132761942Y-92958518D01*
X132761942Y-92958518D01*
G37*
G36*
X130221942Y-92958518D02*
G01*
X130288127Y-92965037D01*
X130457966Y-93016557D01*
X130614491Y-93100222D01*
X130650229Y-93129552D01*
X130751686Y-93212814D01*
X130834948Y-93314271D01*
X130864278Y-93350009D01*
X130947943Y-93506534D01*
X130999463Y-93676373D01*
X131016859Y-93853000D01*
X130999463Y-94029627D01*
X130947943Y-94199466D01*
X130864278Y-94355991D01*
X130834948Y-94391729D01*
X130751686Y-94493186D01*
X130650229Y-94576448D01*
X130614491Y-94605778D01*
X130457966Y-94689443D01*
X130288127Y-94740963D01*
X130221942Y-94747482D01*
X130155760Y-94754000D01*
X130067240Y-94754000D01*
X130001057Y-94747481D01*
X129934873Y-94740963D01*
X129765034Y-94689443D01*
X129608509Y-94605778D01*
X129572771Y-94576448D01*
X129471314Y-94493186D01*
X129388052Y-94391729D01*
X129358722Y-94355991D01*
X129275057Y-94199466D01*
X129223537Y-94029627D01*
X129206141Y-93853000D01*
X129223537Y-93676373D01*
X129275057Y-93506534D01*
X129358722Y-93350009D01*
X129388052Y-93314271D01*
X129471314Y-93212814D01*
X129572771Y-93129552D01*
X129608509Y-93100222D01*
X129765034Y-93016557D01*
X129934873Y-92965037D01*
X130001058Y-92958518D01*
X130067240Y-92952000D01*
X130155760Y-92952000D01*
X130221942Y-92958518D01*
X130221942Y-92958518D01*
G37*
G36*
X132761943Y-90418519D02*
G01*
X132828127Y-90425037D01*
X132997966Y-90476557D01*
X133154491Y-90560222D01*
X133190229Y-90589552D01*
X133291686Y-90672814D01*
X133374948Y-90774271D01*
X133404278Y-90810009D01*
X133487943Y-90966534D01*
X133539463Y-91136373D01*
X133556859Y-91313000D01*
X133539463Y-91489627D01*
X133487943Y-91659466D01*
X133404278Y-91815991D01*
X133374948Y-91851729D01*
X133291686Y-91953186D01*
X133190229Y-92036448D01*
X133154491Y-92065778D01*
X132997966Y-92149443D01*
X132828127Y-92200963D01*
X132761942Y-92207482D01*
X132695760Y-92214000D01*
X132607240Y-92214000D01*
X132541058Y-92207482D01*
X132474873Y-92200963D01*
X132305034Y-92149443D01*
X132148509Y-92065778D01*
X132112771Y-92036448D01*
X132011314Y-91953186D01*
X131928052Y-91851729D01*
X131898722Y-91815991D01*
X131815057Y-91659466D01*
X131763537Y-91489627D01*
X131746141Y-91313000D01*
X131763537Y-91136373D01*
X131815057Y-90966534D01*
X131898722Y-90810009D01*
X131928052Y-90774271D01*
X132011314Y-90672814D01*
X132112771Y-90589552D01*
X132148509Y-90560222D01*
X132305034Y-90476557D01*
X132474873Y-90425037D01*
X132541057Y-90418519D01*
X132607240Y-90412000D01*
X132695760Y-90412000D01*
X132761943Y-90418519D01*
X132761943Y-90418519D01*
G37*
G36*
X130221943Y-90418519D02*
G01*
X130288127Y-90425037D01*
X130457966Y-90476557D01*
X130614491Y-90560222D01*
X130650229Y-90589552D01*
X130751686Y-90672814D01*
X130834948Y-90774271D01*
X130864278Y-90810009D01*
X130947943Y-90966534D01*
X130999463Y-91136373D01*
X131016859Y-91313000D01*
X130999463Y-91489627D01*
X130947943Y-91659466D01*
X130864278Y-91815991D01*
X130834948Y-91851729D01*
X130751686Y-91953186D01*
X130650229Y-92036448D01*
X130614491Y-92065778D01*
X130457966Y-92149443D01*
X130288127Y-92200963D01*
X130221942Y-92207482D01*
X130155760Y-92214000D01*
X130067240Y-92214000D01*
X130001058Y-92207482D01*
X129934873Y-92200963D01*
X129765034Y-92149443D01*
X129608509Y-92065778D01*
X129572771Y-92036448D01*
X129471314Y-91953186D01*
X129388052Y-91851729D01*
X129358722Y-91815991D01*
X129275057Y-91659466D01*
X129223537Y-91489627D01*
X129206141Y-91313000D01*
X129223537Y-91136373D01*
X129275057Y-90966534D01*
X129358722Y-90810009D01*
X129388052Y-90774271D01*
X129471314Y-90672814D01*
X129572771Y-90589552D01*
X129608509Y-90560222D01*
X129765034Y-90476557D01*
X129934873Y-90425037D01*
X130001057Y-90418519D01*
X130067240Y-90412000D01*
X130155760Y-90412000D01*
X130221943Y-90418519D01*
X130221943Y-90418519D01*
G37*
G36*
X132761942Y-87878518D02*
G01*
X132828127Y-87885037D01*
X132997966Y-87936557D01*
X133154491Y-88020222D01*
X133190229Y-88049552D01*
X133291686Y-88132814D01*
X133374948Y-88234271D01*
X133404278Y-88270009D01*
X133487943Y-88426534D01*
X133539463Y-88596373D01*
X133556859Y-88773000D01*
X133539463Y-88949627D01*
X133487943Y-89119466D01*
X133404278Y-89275991D01*
X133374948Y-89311729D01*
X133291686Y-89413186D01*
X133190229Y-89496448D01*
X133154491Y-89525778D01*
X132997966Y-89609443D01*
X132828127Y-89660963D01*
X132761943Y-89667481D01*
X132695760Y-89674000D01*
X132607240Y-89674000D01*
X132541057Y-89667481D01*
X132474873Y-89660963D01*
X132305034Y-89609443D01*
X132148509Y-89525778D01*
X132112771Y-89496448D01*
X132011314Y-89413186D01*
X131928052Y-89311729D01*
X131898722Y-89275991D01*
X131815057Y-89119466D01*
X131763537Y-88949627D01*
X131746141Y-88773000D01*
X131763537Y-88596373D01*
X131815057Y-88426534D01*
X131898722Y-88270009D01*
X131928052Y-88234271D01*
X132011314Y-88132814D01*
X132112771Y-88049552D01*
X132148509Y-88020222D01*
X132305034Y-87936557D01*
X132474873Y-87885037D01*
X132541058Y-87878518D01*
X132607240Y-87872000D01*
X132695760Y-87872000D01*
X132761942Y-87878518D01*
X132761942Y-87878518D01*
G37*
G36*
X130221942Y-87878518D02*
G01*
X130288127Y-87885037D01*
X130457966Y-87936557D01*
X130614491Y-88020222D01*
X130650229Y-88049552D01*
X130751686Y-88132814D01*
X130834948Y-88234271D01*
X130864278Y-88270009D01*
X130947943Y-88426534D01*
X130999463Y-88596373D01*
X131016859Y-88773000D01*
X130999463Y-88949627D01*
X130947943Y-89119466D01*
X130864278Y-89275991D01*
X130834948Y-89311729D01*
X130751686Y-89413186D01*
X130650229Y-89496448D01*
X130614491Y-89525778D01*
X130457966Y-89609443D01*
X130288127Y-89660963D01*
X130221943Y-89667481D01*
X130155760Y-89674000D01*
X130067240Y-89674000D01*
X130001057Y-89667481D01*
X129934873Y-89660963D01*
X129765034Y-89609443D01*
X129608509Y-89525778D01*
X129572771Y-89496448D01*
X129471314Y-89413186D01*
X129388052Y-89311729D01*
X129358722Y-89275991D01*
X129275057Y-89119466D01*
X129223537Y-88949627D01*
X129206141Y-88773000D01*
X129223537Y-88596373D01*
X129275057Y-88426534D01*
X129358722Y-88270009D01*
X129388052Y-88234271D01*
X129471314Y-88132814D01*
X129572771Y-88049552D01*
X129608509Y-88020222D01*
X129765034Y-87936557D01*
X129934873Y-87885037D01*
X130001058Y-87878518D01*
X130067240Y-87872000D01*
X130155760Y-87872000D01*
X130221942Y-87878518D01*
X130221942Y-87878518D01*
G37*
G36*
X147625000Y-89268500D02*
G01*
X142951000Y-89268500D01*
X142951000Y-85864500D01*
X147625000Y-85864500D01*
X147625000Y-89268500D01*
X147625000Y-89268500D01*
G37*
G36*
X132761942Y-85338518D02*
G01*
X132828127Y-85345037D01*
X132997966Y-85396557D01*
X133154491Y-85480222D01*
X133190229Y-85509552D01*
X133291686Y-85592814D01*
X133374948Y-85694271D01*
X133404278Y-85730009D01*
X133404279Y-85730011D01*
X133476166Y-85864500D01*
X133487943Y-85886534D01*
X133539463Y-86056373D01*
X133556859Y-86233000D01*
X133539463Y-86409627D01*
X133487943Y-86579466D01*
X133404278Y-86735991D01*
X133374948Y-86771729D01*
X133291686Y-86873186D01*
X133190229Y-86956448D01*
X133154491Y-86985778D01*
X132997966Y-87069443D01*
X132828127Y-87120963D01*
X132761942Y-87127482D01*
X132695760Y-87134000D01*
X132607240Y-87134000D01*
X132541058Y-87127482D01*
X132474873Y-87120963D01*
X132305034Y-87069443D01*
X132148509Y-86985778D01*
X132112771Y-86956448D01*
X132011314Y-86873186D01*
X131928052Y-86771729D01*
X131898722Y-86735991D01*
X131815057Y-86579466D01*
X131763537Y-86409627D01*
X131746141Y-86233000D01*
X131763537Y-86056373D01*
X131815057Y-85886534D01*
X131826835Y-85864500D01*
X131898721Y-85730011D01*
X131898722Y-85730009D01*
X131928052Y-85694271D01*
X132011314Y-85592814D01*
X132112771Y-85509552D01*
X132148509Y-85480222D01*
X132305034Y-85396557D01*
X132474873Y-85345037D01*
X132541058Y-85338518D01*
X132607240Y-85332000D01*
X132695760Y-85332000D01*
X132761942Y-85338518D01*
X132761942Y-85338518D01*
G37*
G36*
X130221942Y-85338518D02*
G01*
X130288127Y-85345037D01*
X130457966Y-85396557D01*
X130614491Y-85480222D01*
X130650229Y-85509552D01*
X130751686Y-85592814D01*
X130834948Y-85694271D01*
X130864278Y-85730009D01*
X130864279Y-85730011D01*
X130936166Y-85864500D01*
X130947943Y-85886534D01*
X130999463Y-86056373D01*
X131016859Y-86233000D01*
X130999463Y-86409627D01*
X130947943Y-86579466D01*
X130864278Y-86735991D01*
X130834948Y-86771729D01*
X130751686Y-86873186D01*
X130650229Y-86956448D01*
X130614491Y-86985778D01*
X130457966Y-87069443D01*
X130288127Y-87120963D01*
X130221942Y-87127482D01*
X130155760Y-87134000D01*
X130067240Y-87134000D01*
X130001058Y-87127482D01*
X129934873Y-87120963D01*
X129765034Y-87069443D01*
X129608509Y-86985778D01*
X129572771Y-86956448D01*
X129471314Y-86873186D01*
X129388052Y-86771729D01*
X129358722Y-86735991D01*
X129275057Y-86579466D01*
X129223537Y-86409627D01*
X129206141Y-86233000D01*
X129223537Y-86056373D01*
X129275057Y-85886534D01*
X129286835Y-85864500D01*
X129358721Y-85730011D01*
X129358722Y-85730009D01*
X129388052Y-85694271D01*
X129471314Y-85592814D01*
X129572771Y-85509552D01*
X129608509Y-85480222D01*
X129765034Y-85396557D01*
X129934873Y-85345037D01*
X130001058Y-85338518D01*
X130067240Y-85332000D01*
X130155760Y-85332000D01*
X130221942Y-85338518D01*
X130221942Y-85338518D01*
G37*
G36*
X130221943Y-82798519D02*
G01*
X130288127Y-82805037D01*
X130457966Y-82856557D01*
X130614491Y-82940222D01*
X130650229Y-82969552D01*
X130751686Y-83052814D01*
X130834948Y-83154271D01*
X130864278Y-83190009D01*
X130864279Y-83190011D01*
X130947509Y-83345721D01*
X130947943Y-83346534D01*
X130999463Y-83516373D01*
X131016859Y-83693000D01*
X130999463Y-83869627D01*
X130947943Y-84039466D01*
X130864278Y-84195991D01*
X130834948Y-84231729D01*
X130751686Y-84333186D01*
X130650229Y-84416448D01*
X130614491Y-84445778D01*
X130457966Y-84529443D01*
X130288127Y-84580963D01*
X130221943Y-84587481D01*
X130155760Y-84594000D01*
X130067240Y-84594000D01*
X130001057Y-84587481D01*
X129934873Y-84580963D01*
X129765034Y-84529443D01*
X129608509Y-84445778D01*
X129572771Y-84416448D01*
X129471314Y-84333186D01*
X129388052Y-84231729D01*
X129358722Y-84195991D01*
X129275057Y-84039466D01*
X129223537Y-83869627D01*
X129206141Y-83693000D01*
X129223537Y-83516373D01*
X129275057Y-83346534D01*
X129275492Y-83345721D01*
X129358721Y-83190011D01*
X129358722Y-83190009D01*
X129388052Y-83154271D01*
X129471314Y-83052814D01*
X129572771Y-82969552D01*
X129608509Y-82940222D01*
X129765034Y-82856557D01*
X129934873Y-82805037D01*
X130001057Y-82798519D01*
X130067240Y-82792000D01*
X130155760Y-82792000D01*
X130221943Y-82798519D01*
X130221943Y-82798519D01*
G37*
G36*
X132761943Y-82798519D02*
G01*
X132828127Y-82805037D01*
X132997966Y-82856557D01*
X133154491Y-82940222D01*
X133190229Y-82969552D01*
X133291686Y-83052814D01*
X133374948Y-83154271D01*
X133404278Y-83190009D01*
X133404279Y-83190011D01*
X133487509Y-83345721D01*
X133487943Y-83346534D01*
X133539463Y-83516373D01*
X133556859Y-83693000D01*
X133539463Y-83869627D01*
X133487943Y-84039466D01*
X133404278Y-84195991D01*
X133374948Y-84231729D01*
X133291686Y-84333186D01*
X133190229Y-84416448D01*
X133154491Y-84445778D01*
X132997966Y-84529443D01*
X132828127Y-84580963D01*
X132761943Y-84587481D01*
X132695760Y-84594000D01*
X132607240Y-84594000D01*
X132541057Y-84587481D01*
X132474873Y-84580963D01*
X132305034Y-84529443D01*
X132148509Y-84445778D01*
X132112771Y-84416448D01*
X132011314Y-84333186D01*
X131928052Y-84231729D01*
X131898722Y-84195991D01*
X131815057Y-84039466D01*
X131763537Y-83869627D01*
X131746141Y-83693000D01*
X131763537Y-83516373D01*
X131815057Y-83346534D01*
X131815492Y-83345721D01*
X131898721Y-83190011D01*
X131898722Y-83190009D01*
X131928052Y-83154271D01*
X132011314Y-83052814D01*
X132112771Y-82969552D01*
X132148509Y-82940222D01*
X132305034Y-82856557D01*
X132474873Y-82805037D01*
X132541057Y-82798519D01*
X132607240Y-82792000D01*
X132695760Y-82792000D01*
X132761943Y-82798519D01*
X132761943Y-82798519D01*
G37*
G36*
X146210721Y-82655174D02*
G01*
X146310995Y-82696709D01*
X146310996Y-82696710D01*
X146401242Y-82757010D01*
X146477990Y-82833758D01*
X146477991Y-82833760D01*
X146538291Y-82924005D01*
X146579826Y-83024279D01*
X146601000Y-83130730D01*
X146601000Y-83239270D01*
X146579826Y-83345721D01*
X146538291Y-83445995D01*
X146538290Y-83445996D01*
X146477990Y-83536242D01*
X146401242Y-83612990D01*
X146355812Y-83643345D01*
X146310995Y-83673291D01*
X146210721Y-83714826D01*
X146104270Y-83736000D01*
X145995730Y-83736000D01*
X145889279Y-83714826D01*
X145789005Y-83673291D01*
X145744188Y-83643345D01*
X145698758Y-83612990D01*
X145622010Y-83536242D01*
X145561710Y-83445996D01*
X145561709Y-83445995D01*
X145520174Y-83345721D01*
X145499000Y-83239270D01*
X145499000Y-83130730D01*
X145520174Y-83024279D01*
X145561709Y-82924005D01*
X145622009Y-82833760D01*
X145622010Y-82833758D01*
X145698758Y-82757010D01*
X145789004Y-82696710D01*
X145789005Y-82696709D01*
X145889279Y-82655174D01*
X145995730Y-82634000D01*
X146104270Y-82634000D01*
X146210721Y-82655174D01*
X146210721Y-82655174D01*
G37*
G36*
X112213329Y-80592198D02*
G01*
X112387879Y-80645148D01*
X112548747Y-80731133D01*
X112689749Y-80846851D01*
X112805467Y-80987853D01*
X112891452Y-81148721D01*
X112944402Y-81323271D01*
X112962280Y-81504800D01*
X112944402Y-81686329D01*
X112891452Y-81860879D01*
X112805467Y-82021747D01*
X112689749Y-82162749D01*
X112548747Y-82278467D01*
X112387879Y-82364452D01*
X112213329Y-82417402D01*
X112077290Y-82430800D01*
X110236310Y-82430800D01*
X110100271Y-82417402D01*
X109925721Y-82364452D01*
X109764853Y-82278467D01*
X109623851Y-82162749D01*
X109508133Y-82021747D01*
X109422148Y-81860879D01*
X109369198Y-81686329D01*
X109351320Y-81504800D01*
X109369198Y-81323271D01*
X109422148Y-81148721D01*
X109508133Y-80987853D01*
X109623851Y-80846851D01*
X109764853Y-80731133D01*
X109925721Y-80645148D01*
X110100271Y-80592198D01*
X110236310Y-80578800D01*
X112077290Y-80578800D01*
X112213329Y-80592198D01*
X112213329Y-80592198D01*
G37*
G36*
X130221943Y-80258519D02*
G01*
X130288127Y-80265037D01*
X130457966Y-80316557D01*
X130614491Y-80400222D01*
X130650229Y-80429552D01*
X130751686Y-80512814D01*
X130834948Y-80614271D01*
X130864278Y-80650009D01*
X130947943Y-80806534D01*
X130999463Y-80976373D01*
X131016859Y-81153000D01*
X130999463Y-81329627D01*
X130947943Y-81499466D01*
X130864278Y-81655991D01*
X130839381Y-81686328D01*
X130751686Y-81793186D01*
X130650229Y-81876448D01*
X130614491Y-81905778D01*
X130457966Y-81989443D01*
X130288127Y-82040963D01*
X130221942Y-82047482D01*
X130155760Y-82054000D01*
X130067240Y-82054000D01*
X130001058Y-82047482D01*
X129934873Y-82040963D01*
X129765034Y-81989443D01*
X129608509Y-81905778D01*
X129572771Y-81876448D01*
X129471314Y-81793186D01*
X129383619Y-81686328D01*
X129358722Y-81655991D01*
X129275057Y-81499466D01*
X129223537Y-81329627D01*
X129206141Y-81153000D01*
X129223537Y-80976373D01*
X129275057Y-80806534D01*
X129358722Y-80650009D01*
X129388052Y-80614271D01*
X129471314Y-80512814D01*
X129572771Y-80429552D01*
X129608509Y-80400222D01*
X129765034Y-80316557D01*
X129934873Y-80265037D01*
X130001057Y-80258519D01*
X130067240Y-80252000D01*
X130155760Y-80252000D01*
X130221943Y-80258519D01*
X130221943Y-80258519D01*
G37*
G36*
X132761943Y-80258519D02*
G01*
X132828127Y-80265037D01*
X132997966Y-80316557D01*
X133154491Y-80400222D01*
X133190229Y-80429552D01*
X133291686Y-80512814D01*
X133374948Y-80614271D01*
X133404278Y-80650009D01*
X133487943Y-80806534D01*
X133539463Y-80976373D01*
X133556859Y-81153000D01*
X133539463Y-81329627D01*
X133487943Y-81499466D01*
X133404278Y-81655991D01*
X133379381Y-81686328D01*
X133291686Y-81793186D01*
X133190229Y-81876448D01*
X133154491Y-81905778D01*
X132997966Y-81989443D01*
X132828127Y-82040963D01*
X132761942Y-82047482D01*
X132695760Y-82054000D01*
X132607240Y-82054000D01*
X132541058Y-82047482D01*
X132474873Y-82040963D01*
X132305034Y-81989443D01*
X132148509Y-81905778D01*
X132112771Y-81876448D01*
X132011314Y-81793186D01*
X131923619Y-81686328D01*
X131898722Y-81655991D01*
X131815057Y-81499466D01*
X131763537Y-81329627D01*
X131746141Y-81153000D01*
X131763537Y-80976373D01*
X131815057Y-80806534D01*
X131898722Y-80650009D01*
X131928052Y-80614271D01*
X132011314Y-80512814D01*
X132112771Y-80429552D01*
X132148509Y-80400222D01*
X132305034Y-80316557D01*
X132474873Y-80265037D01*
X132541057Y-80258519D01*
X132607240Y-80252000D01*
X132695760Y-80252000D01*
X132761943Y-80258519D01*
X132761943Y-80258519D01*
G37*
G36*
X112213329Y-78092198D02*
G01*
X112387879Y-78145148D01*
X112548747Y-78231133D01*
X112689749Y-78346851D01*
X112805467Y-78487853D01*
X112891452Y-78648721D01*
X112944402Y-78823271D01*
X112962280Y-79004800D01*
X112944402Y-79186329D01*
X112891452Y-79360879D01*
X112805467Y-79521747D01*
X112689749Y-79662749D01*
X112548747Y-79778467D01*
X112387879Y-79864452D01*
X112213329Y-79917402D01*
X112077290Y-79930800D01*
X110236310Y-79930800D01*
X110100271Y-79917402D01*
X109925721Y-79864452D01*
X109764853Y-79778467D01*
X109623851Y-79662749D01*
X109508133Y-79521747D01*
X109422148Y-79360879D01*
X109369198Y-79186329D01*
X109351320Y-79004800D01*
X109369198Y-78823271D01*
X109422148Y-78648721D01*
X109508133Y-78487853D01*
X109623851Y-78346851D01*
X109764853Y-78231133D01*
X109925721Y-78145148D01*
X110100271Y-78092198D01*
X110236310Y-78078800D01*
X112077290Y-78078800D01*
X112213329Y-78092198D01*
X112213329Y-78092198D01*
G37*
G36*
X132761943Y-77718519D02*
G01*
X132828127Y-77725037D01*
X132997966Y-77776557D01*
X133154491Y-77860222D01*
X133190229Y-77889552D01*
X133291686Y-77972814D01*
X133374948Y-78074271D01*
X133404278Y-78110009D01*
X133487943Y-78266534D01*
X133539463Y-78436373D01*
X133556859Y-78613000D01*
X133539463Y-78789627D01*
X133487943Y-78959466D01*
X133404278Y-79115991D01*
X133374948Y-79151729D01*
X133291686Y-79253186D01*
X133190229Y-79336448D01*
X133154491Y-79365778D01*
X132997966Y-79449443D01*
X132828127Y-79500963D01*
X132761943Y-79507481D01*
X132695760Y-79514000D01*
X132607240Y-79514000D01*
X132541057Y-79507481D01*
X132474873Y-79500963D01*
X132305034Y-79449443D01*
X132148509Y-79365778D01*
X132112771Y-79336448D01*
X132011314Y-79253186D01*
X131928052Y-79151729D01*
X131898722Y-79115991D01*
X131815057Y-78959466D01*
X131763537Y-78789627D01*
X131746141Y-78613000D01*
X131763537Y-78436373D01*
X131815057Y-78266534D01*
X131898722Y-78110009D01*
X131928052Y-78074271D01*
X132011314Y-77972814D01*
X132112771Y-77889552D01*
X132148509Y-77860222D01*
X132305034Y-77776557D01*
X132474873Y-77725037D01*
X132541057Y-77718519D01*
X132607240Y-77712000D01*
X132695760Y-77712000D01*
X132761943Y-77718519D01*
X132761943Y-77718519D01*
G37*
G36*
X130221943Y-77718519D02*
G01*
X130288127Y-77725037D01*
X130457966Y-77776557D01*
X130614491Y-77860222D01*
X130650229Y-77889552D01*
X130751686Y-77972814D01*
X130834948Y-78074271D01*
X130864278Y-78110009D01*
X130947943Y-78266534D01*
X130999463Y-78436373D01*
X131016859Y-78613000D01*
X130999463Y-78789627D01*
X130947943Y-78959466D01*
X130864278Y-79115991D01*
X130834948Y-79151729D01*
X130751686Y-79253186D01*
X130650229Y-79336448D01*
X130614491Y-79365778D01*
X130457966Y-79449443D01*
X130288127Y-79500963D01*
X130221943Y-79507481D01*
X130155760Y-79514000D01*
X130067240Y-79514000D01*
X130001057Y-79507481D01*
X129934873Y-79500963D01*
X129765034Y-79449443D01*
X129608509Y-79365778D01*
X129572771Y-79336448D01*
X129471314Y-79253186D01*
X129388052Y-79151729D01*
X129358722Y-79115991D01*
X129275057Y-78959466D01*
X129223537Y-78789627D01*
X129206141Y-78613000D01*
X129223537Y-78436373D01*
X129275057Y-78266534D01*
X129358722Y-78110009D01*
X129388052Y-78074271D01*
X129471314Y-77972814D01*
X129572771Y-77889552D01*
X129608509Y-77860222D01*
X129765034Y-77776557D01*
X129934873Y-77725037D01*
X130001057Y-77718519D01*
X130067240Y-77712000D01*
X130155760Y-77712000D01*
X130221943Y-77718519D01*
X130221943Y-77718519D01*
G37*
G36*
X107451800Y-78305800D02*
G01*
X104849800Y-78305800D01*
X104849800Y-74703800D01*
X107451800Y-74703800D01*
X107451800Y-78305800D01*
X107451800Y-78305800D01*
G37*
G36*
X130221942Y-75178518D02*
G01*
X130288127Y-75185037D01*
X130457966Y-75236557D01*
X130614491Y-75320222D01*
X130650229Y-75349552D01*
X130751686Y-75432814D01*
X130834948Y-75534271D01*
X130864278Y-75570009D01*
X130947943Y-75726534D01*
X130999463Y-75896373D01*
X131016859Y-76073000D01*
X130999463Y-76249627D01*
X130947943Y-76419466D01*
X130864278Y-76575991D01*
X130834948Y-76611729D01*
X130751686Y-76713186D01*
X130650229Y-76796448D01*
X130614491Y-76825778D01*
X130457966Y-76909443D01*
X130288127Y-76960963D01*
X130221942Y-76967482D01*
X130155760Y-76974000D01*
X130067240Y-76974000D01*
X130001058Y-76967482D01*
X129934873Y-76960963D01*
X129765034Y-76909443D01*
X129608509Y-76825778D01*
X129572771Y-76796448D01*
X129471314Y-76713186D01*
X129388052Y-76611729D01*
X129358722Y-76575991D01*
X129275057Y-76419466D01*
X129223537Y-76249627D01*
X129206141Y-76073000D01*
X129223537Y-75896373D01*
X129275057Y-75726534D01*
X129358722Y-75570009D01*
X129388052Y-75534271D01*
X129471314Y-75432814D01*
X129572771Y-75349552D01*
X129608509Y-75320222D01*
X129765034Y-75236557D01*
X129934873Y-75185037D01*
X130001058Y-75178518D01*
X130067240Y-75172000D01*
X130155760Y-75172000D01*
X130221942Y-75178518D01*
X130221942Y-75178518D01*
G37*
G36*
X132761942Y-75178518D02*
G01*
X132828127Y-75185037D01*
X132997966Y-75236557D01*
X133154491Y-75320222D01*
X133190229Y-75349552D01*
X133291686Y-75432814D01*
X133374948Y-75534271D01*
X133404278Y-75570009D01*
X133487943Y-75726534D01*
X133539463Y-75896373D01*
X133556859Y-76073000D01*
X133539463Y-76249627D01*
X133487943Y-76419466D01*
X133404278Y-76575991D01*
X133374948Y-76611729D01*
X133291686Y-76713186D01*
X133190229Y-76796448D01*
X133154491Y-76825778D01*
X132997966Y-76909443D01*
X132828127Y-76960963D01*
X132761942Y-76967482D01*
X132695760Y-76974000D01*
X132607240Y-76974000D01*
X132541058Y-76967482D01*
X132474873Y-76960963D01*
X132305034Y-76909443D01*
X132148509Y-76825778D01*
X132112771Y-76796448D01*
X132011314Y-76713186D01*
X131928052Y-76611729D01*
X131898722Y-76575991D01*
X131815057Y-76419466D01*
X131763537Y-76249627D01*
X131746141Y-76073000D01*
X131763537Y-75896373D01*
X131815057Y-75726534D01*
X131898722Y-75570009D01*
X131928052Y-75534271D01*
X132011314Y-75432814D01*
X132112771Y-75349552D01*
X132148509Y-75320222D01*
X132305034Y-75236557D01*
X132474873Y-75185037D01*
X132541058Y-75178518D01*
X132607240Y-75172000D01*
X132695760Y-75172000D01*
X132761942Y-75178518D01*
X132761942Y-75178518D01*
G37*
G36*
X112213329Y-73092198D02*
G01*
X112387879Y-73145148D01*
X112548747Y-73231133D01*
X112689749Y-73346851D01*
X112805467Y-73487853D01*
X112891452Y-73648721D01*
X112944402Y-73823271D01*
X112962280Y-74004800D01*
X112944402Y-74186329D01*
X112891452Y-74360879D01*
X112805467Y-74521747D01*
X112689749Y-74662749D01*
X112548747Y-74778467D01*
X112387879Y-74864452D01*
X112213329Y-74917402D01*
X112077290Y-74930800D01*
X110236310Y-74930800D01*
X110100271Y-74917402D01*
X109925721Y-74864452D01*
X109764853Y-74778467D01*
X109623851Y-74662749D01*
X109508133Y-74521747D01*
X109422148Y-74360879D01*
X109369198Y-74186329D01*
X109351320Y-74004800D01*
X109369198Y-73823271D01*
X109422148Y-73648721D01*
X109508133Y-73487853D01*
X109623851Y-73346851D01*
X109764853Y-73231133D01*
X109925721Y-73145148D01*
X110100271Y-73092198D01*
X110236310Y-73078800D01*
X112077290Y-73078800D01*
X112213329Y-73092198D01*
X112213329Y-73092198D01*
G37*
G36*
X130221943Y-72638519D02*
G01*
X130288127Y-72645037D01*
X130457966Y-72696557D01*
X130614491Y-72780222D01*
X130650229Y-72809552D01*
X130751686Y-72892814D01*
X130834948Y-72994271D01*
X130864278Y-73030009D01*
X130947943Y-73186534D01*
X130999463Y-73356373D01*
X131016859Y-73533000D01*
X130999463Y-73709627D01*
X130947943Y-73879466D01*
X130864278Y-74035991D01*
X130834948Y-74071729D01*
X130751686Y-74173186D01*
X130650229Y-74256448D01*
X130614491Y-74285778D01*
X130457966Y-74369443D01*
X130288127Y-74420963D01*
X130221943Y-74427481D01*
X130155760Y-74434000D01*
X130067240Y-74434000D01*
X130001057Y-74427481D01*
X129934873Y-74420963D01*
X129765034Y-74369443D01*
X129608509Y-74285778D01*
X129572771Y-74256448D01*
X129471314Y-74173186D01*
X129388052Y-74071729D01*
X129358722Y-74035991D01*
X129275057Y-73879466D01*
X129223537Y-73709627D01*
X129206141Y-73533000D01*
X129223537Y-73356373D01*
X129275057Y-73186534D01*
X129358722Y-73030009D01*
X129388052Y-72994271D01*
X129471314Y-72892814D01*
X129572771Y-72809552D01*
X129608509Y-72780222D01*
X129765034Y-72696557D01*
X129934873Y-72645037D01*
X130001057Y-72638519D01*
X130067240Y-72632000D01*
X130155760Y-72632000D01*
X130221943Y-72638519D01*
X130221943Y-72638519D01*
G37*
G36*
X132761943Y-72638519D02*
G01*
X132828127Y-72645037D01*
X132997966Y-72696557D01*
X133154491Y-72780222D01*
X133190229Y-72809552D01*
X133291686Y-72892814D01*
X133374948Y-72994271D01*
X133404278Y-73030009D01*
X133487943Y-73186534D01*
X133539463Y-73356373D01*
X133556859Y-73533000D01*
X133539463Y-73709627D01*
X133487943Y-73879466D01*
X133404278Y-74035991D01*
X133374948Y-74071729D01*
X133291686Y-74173186D01*
X133190229Y-74256448D01*
X133154491Y-74285778D01*
X132997966Y-74369443D01*
X132828127Y-74420963D01*
X132761943Y-74427481D01*
X132695760Y-74434000D01*
X132607240Y-74434000D01*
X132541057Y-74427481D01*
X132474873Y-74420963D01*
X132305034Y-74369443D01*
X132148509Y-74285778D01*
X132112771Y-74256448D01*
X132011314Y-74173186D01*
X131928052Y-74071729D01*
X131898722Y-74035991D01*
X131815057Y-73879466D01*
X131763537Y-73709627D01*
X131746141Y-73533000D01*
X131763537Y-73356373D01*
X131815057Y-73186534D01*
X131898722Y-73030009D01*
X131928052Y-72994271D01*
X132011314Y-72892814D01*
X132112771Y-72809552D01*
X132148509Y-72780222D01*
X132305034Y-72696557D01*
X132474873Y-72645037D01*
X132541057Y-72638519D01*
X132607240Y-72632000D01*
X132695760Y-72632000D01*
X132761943Y-72638519D01*
X132761943Y-72638519D01*
G37*
G36*
X112213329Y-70592198D02*
G01*
X112387879Y-70645148D01*
X112548747Y-70731133D01*
X112689749Y-70846851D01*
X112805467Y-70987853D01*
X112891452Y-71148721D01*
X112944402Y-71323271D01*
X112962280Y-71504800D01*
X112944402Y-71686329D01*
X112891452Y-71860879D01*
X112805467Y-72021747D01*
X112689749Y-72162749D01*
X112548747Y-72278467D01*
X112387879Y-72364452D01*
X112213329Y-72417402D01*
X112077290Y-72430800D01*
X110236310Y-72430800D01*
X110100271Y-72417402D01*
X109925721Y-72364452D01*
X109764853Y-72278467D01*
X109623851Y-72162749D01*
X109508133Y-72021747D01*
X109422148Y-71860879D01*
X109369198Y-71686329D01*
X109351320Y-71504800D01*
X109369198Y-71323271D01*
X109422148Y-71148721D01*
X109508133Y-70987853D01*
X109623851Y-70846851D01*
X109764853Y-70731133D01*
X109925721Y-70645148D01*
X110100271Y-70592198D01*
X110236310Y-70578800D01*
X112077290Y-70578800D01*
X112213329Y-70592198D01*
X112213329Y-70592198D01*
G37*
G36*
X130221943Y-70098519D02*
G01*
X130288127Y-70105037D01*
X130457966Y-70156557D01*
X130614491Y-70240222D01*
X130639514Y-70260758D01*
X130751686Y-70352814D01*
X130832493Y-70451279D01*
X130864278Y-70490009D01*
X130947943Y-70646534D01*
X130999463Y-70816373D01*
X131016859Y-70993000D01*
X130999463Y-71169627D01*
X130947943Y-71339466D01*
X130864278Y-71495991D01*
X130834948Y-71531729D01*
X130751686Y-71633186D01*
X130650229Y-71716448D01*
X130614491Y-71745778D01*
X130457966Y-71829443D01*
X130288127Y-71880963D01*
X130221943Y-71887481D01*
X130155760Y-71894000D01*
X130067240Y-71894000D01*
X130001057Y-71887481D01*
X129934873Y-71880963D01*
X129765034Y-71829443D01*
X129608509Y-71745778D01*
X129572771Y-71716448D01*
X129471314Y-71633186D01*
X129388052Y-71531729D01*
X129358722Y-71495991D01*
X129275057Y-71339466D01*
X129223537Y-71169627D01*
X129206141Y-70993000D01*
X129223537Y-70816373D01*
X129275057Y-70646534D01*
X129358722Y-70490009D01*
X129390507Y-70451279D01*
X129471314Y-70352814D01*
X129583486Y-70260758D01*
X129608509Y-70240222D01*
X129765034Y-70156557D01*
X129934873Y-70105037D01*
X130001057Y-70098519D01*
X130067240Y-70092000D01*
X130155760Y-70092000D01*
X130221943Y-70098519D01*
X130221943Y-70098519D01*
G37*
G36*
X132761943Y-70098519D02*
G01*
X132828127Y-70105037D01*
X132997966Y-70156557D01*
X133154491Y-70240222D01*
X133179514Y-70260758D01*
X133291686Y-70352814D01*
X133372493Y-70451279D01*
X133404278Y-70490009D01*
X133487943Y-70646534D01*
X133539463Y-70816373D01*
X133556859Y-70993000D01*
X133539463Y-71169627D01*
X133487943Y-71339466D01*
X133404278Y-71495991D01*
X133374948Y-71531729D01*
X133291686Y-71633186D01*
X133190229Y-71716448D01*
X133154491Y-71745778D01*
X132997966Y-71829443D01*
X132828127Y-71880963D01*
X132761943Y-71887481D01*
X132695760Y-71894000D01*
X132607240Y-71894000D01*
X132541057Y-71887481D01*
X132474873Y-71880963D01*
X132305034Y-71829443D01*
X132148509Y-71745778D01*
X132112771Y-71716448D01*
X132011314Y-71633186D01*
X131928052Y-71531729D01*
X131898722Y-71495991D01*
X131815057Y-71339466D01*
X131763537Y-71169627D01*
X131746141Y-70993000D01*
X131763537Y-70816373D01*
X131815057Y-70646534D01*
X131898722Y-70490009D01*
X131930507Y-70451279D01*
X132011314Y-70352814D01*
X132123486Y-70260758D01*
X132148509Y-70240222D01*
X132305034Y-70156557D01*
X132474873Y-70105037D01*
X132541057Y-70098519D01*
X132607240Y-70092000D01*
X132695760Y-70092000D01*
X132761943Y-70098519D01*
X132761943Y-70098519D01*
G37*
G36*
X142400721Y-70082174D02*
G01*
X142500995Y-70123709D01*
X142500996Y-70123710D01*
X142591242Y-70184010D01*
X142667990Y-70260758D01*
X142698345Y-70306188D01*
X142728291Y-70351005D01*
X142769826Y-70451279D01*
X142791000Y-70557730D01*
X142791000Y-70666270D01*
X142769826Y-70772721D01*
X142728291Y-70872995D01*
X142728290Y-70872996D01*
X142667990Y-70963242D01*
X142591242Y-71039990D01*
X142545812Y-71070345D01*
X142500995Y-71100291D01*
X142400721Y-71141826D01*
X142294270Y-71163000D01*
X142185730Y-71163000D01*
X142079279Y-71141826D01*
X141979005Y-71100291D01*
X141934188Y-71070345D01*
X141888758Y-71039990D01*
X141812010Y-70963242D01*
X141751710Y-70872996D01*
X141751709Y-70872995D01*
X141710174Y-70772721D01*
X141689000Y-70666270D01*
X141689000Y-70557730D01*
X141710174Y-70451279D01*
X141751709Y-70351005D01*
X141781655Y-70306188D01*
X141812010Y-70260758D01*
X141888758Y-70184010D01*
X141979004Y-70123710D01*
X141979005Y-70123709D01*
X142079279Y-70082174D01*
X142185730Y-70061000D01*
X142294270Y-70061000D01*
X142400721Y-70082174D01*
X142400721Y-70082174D01*
G37*
G36*
X146210721Y-69320174D02*
G01*
X146310995Y-69361709D01*
X146310996Y-69361710D01*
X146401242Y-69422010D01*
X146477990Y-69498758D01*
X146477991Y-69498760D01*
X146538291Y-69589005D01*
X146579826Y-69689279D01*
X146601000Y-69795730D01*
X146601000Y-69904270D01*
X146579826Y-70010721D01*
X146538291Y-70110995D01*
X146538290Y-70110996D01*
X146477990Y-70201242D01*
X146401242Y-70277990D01*
X146355812Y-70308345D01*
X146310995Y-70338291D01*
X146210721Y-70379826D01*
X146104270Y-70401000D01*
X145995730Y-70401000D01*
X145889279Y-70379826D01*
X145789005Y-70338291D01*
X145744188Y-70308345D01*
X145698758Y-70277990D01*
X145622010Y-70201242D01*
X145561710Y-70110996D01*
X145561709Y-70110995D01*
X145520174Y-70010721D01*
X145499000Y-69904270D01*
X145499000Y-69795730D01*
X145520174Y-69689279D01*
X145561709Y-69589005D01*
X145622009Y-69498760D01*
X145622010Y-69498758D01*
X145698758Y-69422010D01*
X145789004Y-69361710D01*
X145789005Y-69361709D01*
X145889279Y-69320174D01*
X145995730Y-69299000D01*
X146104270Y-69299000D01*
X146210721Y-69320174D01*
X146210721Y-69320174D01*
G37*
G36*
X132761943Y-67558519D02*
G01*
X132828127Y-67565037D01*
X132997966Y-67616557D01*
X133154491Y-67700222D01*
X133190229Y-67729552D01*
X133291686Y-67812814D01*
X133374948Y-67914271D01*
X133404278Y-67950009D01*
X133487943Y-68106534D01*
X133539463Y-68276373D01*
X133556859Y-68453000D01*
X133539463Y-68629627D01*
X133487943Y-68799466D01*
X133404278Y-68955991D01*
X133374948Y-68991729D01*
X133291686Y-69093186D01*
X133190229Y-69176448D01*
X133154491Y-69205778D01*
X132997966Y-69289443D01*
X132828127Y-69340963D01*
X132761943Y-69347481D01*
X132695760Y-69354000D01*
X132607240Y-69354000D01*
X132541057Y-69347481D01*
X132474873Y-69340963D01*
X132305034Y-69289443D01*
X132148509Y-69205778D01*
X132112771Y-69176448D01*
X132011314Y-69093186D01*
X131928052Y-68991729D01*
X131898722Y-68955991D01*
X131815057Y-68799466D01*
X131763537Y-68629627D01*
X131746141Y-68453000D01*
X131763537Y-68276373D01*
X131815057Y-68106534D01*
X131898722Y-67950009D01*
X131928052Y-67914271D01*
X132011314Y-67812814D01*
X132112771Y-67729552D01*
X132148509Y-67700222D01*
X132305034Y-67616557D01*
X132474873Y-67565037D01*
X132541057Y-67558519D01*
X132607240Y-67552000D01*
X132695760Y-67552000D01*
X132761943Y-67558519D01*
X132761943Y-67558519D01*
G37*
G36*
X130221943Y-67558519D02*
G01*
X130288127Y-67565037D01*
X130457966Y-67616557D01*
X130614491Y-67700222D01*
X130650229Y-67729552D01*
X130751686Y-67812814D01*
X130834948Y-67914271D01*
X130864278Y-67950009D01*
X130947943Y-68106534D01*
X130999463Y-68276373D01*
X131016859Y-68453000D01*
X130999463Y-68629627D01*
X130947943Y-68799466D01*
X130864278Y-68955991D01*
X130834948Y-68991729D01*
X130751686Y-69093186D01*
X130650229Y-69176448D01*
X130614491Y-69205778D01*
X130457966Y-69289443D01*
X130288127Y-69340963D01*
X130221943Y-69347481D01*
X130155760Y-69354000D01*
X130067240Y-69354000D01*
X130001057Y-69347481D01*
X129934873Y-69340963D01*
X129765034Y-69289443D01*
X129608509Y-69205778D01*
X129572771Y-69176448D01*
X129471314Y-69093186D01*
X129388052Y-68991729D01*
X129358722Y-68955991D01*
X129275057Y-68799466D01*
X129223537Y-68629627D01*
X129206141Y-68453000D01*
X129223537Y-68276373D01*
X129275057Y-68106534D01*
X129358722Y-67950009D01*
X129388052Y-67914271D01*
X129471314Y-67812814D01*
X129572771Y-67729552D01*
X129608509Y-67700222D01*
X129765034Y-67616557D01*
X129934873Y-67565037D01*
X130001057Y-67558519D01*
X130067240Y-67552000D01*
X130155760Y-67552000D01*
X130221943Y-67558519D01*
X130221943Y-67558519D01*
G37*
G36*
X132761942Y-65018518D02*
G01*
X132828127Y-65025037D01*
X132997966Y-65076557D01*
X133154491Y-65160222D01*
X133190229Y-65189552D01*
X133291686Y-65272814D01*
X133374948Y-65374271D01*
X133404278Y-65410009D01*
X133487943Y-65566534D01*
X133539463Y-65736373D01*
X133556859Y-65913000D01*
X133539463Y-66089627D01*
X133487943Y-66259466D01*
X133404278Y-66415991D01*
X133374948Y-66451729D01*
X133291686Y-66553186D01*
X133190229Y-66636448D01*
X133154491Y-66665778D01*
X132997966Y-66749443D01*
X132828127Y-66800963D01*
X132761942Y-66807482D01*
X132695760Y-66814000D01*
X132607240Y-66814000D01*
X132541058Y-66807482D01*
X132474873Y-66800963D01*
X132305034Y-66749443D01*
X132148509Y-66665778D01*
X132112771Y-66636448D01*
X132011314Y-66553186D01*
X131928052Y-66451729D01*
X131898722Y-66415991D01*
X131815057Y-66259466D01*
X131763537Y-66089627D01*
X131746141Y-65913000D01*
X131763537Y-65736373D01*
X131815057Y-65566534D01*
X131898722Y-65410009D01*
X131928052Y-65374271D01*
X132011314Y-65272814D01*
X132112771Y-65189552D01*
X132148509Y-65160222D01*
X132305034Y-65076557D01*
X132474873Y-65025037D01*
X132541058Y-65018518D01*
X132607240Y-65012000D01*
X132695760Y-65012000D01*
X132761942Y-65018518D01*
X132761942Y-65018518D01*
G37*
G36*
X130221942Y-65018518D02*
G01*
X130288127Y-65025037D01*
X130457966Y-65076557D01*
X130614491Y-65160222D01*
X130650229Y-65189552D01*
X130751686Y-65272814D01*
X130834948Y-65374271D01*
X130864278Y-65410009D01*
X130947943Y-65566534D01*
X130999463Y-65736373D01*
X131016859Y-65913000D01*
X130999463Y-66089627D01*
X130947943Y-66259466D01*
X130864278Y-66415991D01*
X130834948Y-66451729D01*
X130751686Y-66553186D01*
X130650229Y-66636448D01*
X130614491Y-66665778D01*
X130457966Y-66749443D01*
X130288127Y-66800963D01*
X130221942Y-66807482D01*
X130155760Y-66814000D01*
X130067240Y-66814000D01*
X130001058Y-66807482D01*
X129934873Y-66800963D01*
X129765034Y-66749443D01*
X129608509Y-66665778D01*
X129572771Y-66636448D01*
X129471314Y-66553186D01*
X129388052Y-66451729D01*
X129358722Y-66415991D01*
X129275057Y-66259466D01*
X129223537Y-66089627D01*
X129206141Y-65913000D01*
X129223537Y-65736373D01*
X129275057Y-65566534D01*
X129358722Y-65410009D01*
X129388052Y-65374271D01*
X129471314Y-65272814D01*
X129572771Y-65189552D01*
X129608509Y-65160222D01*
X129765034Y-65076557D01*
X129934873Y-65025037D01*
X130001058Y-65018518D01*
X130067240Y-65012000D01*
X130155760Y-65012000D01*
X130221942Y-65018518D01*
X130221942Y-65018518D01*
G37*
G36*
X146845721Y-65510174D02*
G01*
X146945995Y-65551709D01*
X146945996Y-65551710D01*
X147036242Y-65612010D01*
X147112990Y-65688758D01*
X147112991Y-65688760D01*
X147173291Y-65779005D01*
X147214826Y-65879279D01*
X147236000Y-65985730D01*
X147236000Y-66094270D01*
X147214826Y-66200721D01*
X147173291Y-66300995D01*
X147173290Y-66300996D01*
X147112990Y-66391242D01*
X147036242Y-66467990D01*
X146990812Y-66498345D01*
X146945995Y-66528291D01*
X146845721Y-66569826D01*
X146739270Y-66591000D01*
X146630730Y-66591000D01*
X146524279Y-66569826D01*
X146424005Y-66528291D01*
X146379188Y-66498345D01*
X146333758Y-66467990D01*
X146257010Y-66391242D01*
X146196710Y-66300996D01*
X146196709Y-66300995D01*
X146155174Y-66200721D01*
X146134000Y-66094270D01*
X146134000Y-65985730D01*
X146155174Y-65879279D01*
X146196709Y-65779005D01*
X146257009Y-65688760D01*
X146257010Y-65688758D01*
X146333758Y-65612010D01*
X146424004Y-65551710D01*
X146424005Y-65551709D01*
X146524279Y-65510174D01*
X146630730Y-65489000D01*
X146739270Y-65489000D01*
X146845721Y-65510174D01*
X146845721Y-65510174D01*
G37*
G36*
X132761943Y-62478519D02*
G01*
X132828127Y-62485037D01*
X132997966Y-62536557D01*
X133154491Y-62620222D01*
X133190229Y-62649552D01*
X133291686Y-62732814D01*
X133374948Y-62834271D01*
X133404278Y-62870009D01*
X133487943Y-63026534D01*
X133539463Y-63196373D01*
X133556859Y-63373000D01*
X133539463Y-63549627D01*
X133487943Y-63719466D01*
X133404278Y-63875991D01*
X133374948Y-63911729D01*
X133291686Y-64013186D01*
X133190229Y-64096448D01*
X133154491Y-64125778D01*
X132997966Y-64209443D01*
X132828127Y-64260963D01*
X132761943Y-64267481D01*
X132695760Y-64274000D01*
X132607240Y-64274000D01*
X132541057Y-64267481D01*
X132474873Y-64260963D01*
X132305034Y-64209443D01*
X132148509Y-64125778D01*
X132112771Y-64096448D01*
X132011314Y-64013186D01*
X131928052Y-63911729D01*
X131898722Y-63875991D01*
X131815057Y-63719466D01*
X131763537Y-63549627D01*
X131746141Y-63373000D01*
X131763537Y-63196373D01*
X131815057Y-63026534D01*
X131898722Y-62870009D01*
X131928052Y-62834271D01*
X132011314Y-62732814D01*
X132112771Y-62649552D01*
X132148509Y-62620222D01*
X132305034Y-62536557D01*
X132474873Y-62485037D01*
X132541057Y-62478519D01*
X132607240Y-62472000D01*
X132695760Y-62472000D01*
X132761943Y-62478519D01*
X132761943Y-62478519D01*
G37*
G36*
X130221943Y-62478519D02*
G01*
X130288127Y-62485037D01*
X130457966Y-62536557D01*
X130614491Y-62620222D01*
X130650229Y-62649552D01*
X130751686Y-62732814D01*
X130834948Y-62834271D01*
X130864278Y-62870009D01*
X130947943Y-63026534D01*
X130999463Y-63196373D01*
X131016859Y-63373000D01*
X130999463Y-63549627D01*
X130947943Y-63719466D01*
X130864278Y-63875991D01*
X130834948Y-63911729D01*
X130751686Y-64013186D01*
X130650229Y-64096448D01*
X130614491Y-64125778D01*
X130457966Y-64209443D01*
X130288127Y-64260963D01*
X130221943Y-64267481D01*
X130155760Y-64274000D01*
X130067240Y-64274000D01*
X130001057Y-64267481D01*
X129934873Y-64260963D01*
X129765034Y-64209443D01*
X129608509Y-64125778D01*
X129572771Y-64096448D01*
X129471314Y-64013186D01*
X129388052Y-63911729D01*
X129358722Y-63875991D01*
X129275057Y-63719466D01*
X129223537Y-63549627D01*
X129206141Y-63373000D01*
X129223537Y-63196373D01*
X129275057Y-63026534D01*
X129358722Y-62870009D01*
X129388052Y-62834271D01*
X129471314Y-62732814D01*
X129572771Y-62649552D01*
X129608509Y-62620222D01*
X129765034Y-62536557D01*
X129934873Y-62485037D01*
X130001057Y-62478519D01*
X130067240Y-62472000D01*
X130155760Y-62472000D01*
X130221943Y-62478519D01*
X130221943Y-62478519D01*
G37*
G36*
X147725000Y-63430340D02*
G01*
X143051000Y-63430340D01*
X143051000Y-60026340D01*
X147725000Y-60026340D01*
X147725000Y-63430340D01*
X147725000Y-63430340D01*
G37*
G36*
X132761942Y-59938518D02*
G01*
X132828127Y-59945037D01*
X132997966Y-59996557D01*
X133154491Y-60080222D01*
X133190229Y-60109552D01*
X133291686Y-60192814D01*
X133374948Y-60294271D01*
X133404278Y-60330009D01*
X133487943Y-60486534D01*
X133539463Y-60656373D01*
X133556859Y-60833000D01*
X133539463Y-61009627D01*
X133487943Y-61179466D01*
X133404278Y-61335991D01*
X133374948Y-61371729D01*
X133291686Y-61473186D01*
X133190229Y-61556448D01*
X133154491Y-61585778D01*
X132997966Y-61669443D01*
X132828127Y-61720963D01*
X132761943Y-61727481D01*
X132695760Y-61734000D01*
X132607240Y-61734000D01*
X132541057Y-61727481D01*
X132474873Y-61720963D01*
X132305034Y-61669443D01*
X132148509Y-61585778D01*
X132112771Y-61556448D01*
X132011314Y-61473186D01*
X131928052Y-61371729D01*
X131898722Y-61335991D01*
X131815057Y-61179466D01*
X131763537Y-61009627D01*
X131746141Y-60833000D01*
X131763537Y-60656373D01*
X131815057Y-60486534D01*
X131898722Y-60330009D01*
X131928052Y-60294271D01*
X132011314Y-60192814D01*
X132112771Y-60109552D01*
X132148509Y-60080222D01*
X132305034Y-59996557D01*
X132474873Y-59945037D01*
X132541058Y-59938518D01*
X132607240Y-59932000D01*
X132695760Y-59932000D01*
X132761942Y-59938518D01*
X132761942Y-59938518D01*
G37*
G36*
X130221942Y-59938518D02*
G01*
X130288127Y-59945037D01*
X130457966Y-59996557D01*
X130614491Y-60080222D01*
X130650229Y-60109552D01*
X130751686Y-60192814D01*
X130834948Y-60294271D01*
X130864278Y-60330009D01*
X130947943Y-60486534D01*
X130999463Y-60656373D01*
X131016859Y-60833000D01*
X130999463Y-61009627D01*
X130947943Y-61179466D01*
X130864278Y-61335991D01*
X130834948Y-61371729D01*
X130751686Y-61473186D01*
X130650229Y-61556448D01*
X130614491Y-61585778D01*
X130457966Y-61669443D01*
X130288127Y-61720963D01*
X130221943Y-61727481D01*
X130155760Y-61734000D01*
X130067240Y-61734000D01*
X130001057Y-61727481D01*
X129934873Y-61720963D01*
X129765034Y-61669443D01*
X129608509Y-61585778D01*
X129572771Y-61556448D01*
X129471314Y-61473186D01*
X129388052Y-61371729D01*
X129358722Y-61335991D01*
X129275057Y-61179466D01*
X129223537Y-61009627D01*
X129206141Y-60833000D01*
X129223537Y-60656373D01*
X129275057Y-60486534D01*
X129358722Y-60330009D01*
X129388052Y-60294271D01*
X129471314Y-60192814D01*
X129572771Y-60109552D01*
X129608509Y-60080222D01*
X129765034Y-59996557D01*
X129934873Y-59945037D01*
X130001058Y-59938518D01*
X130067240Y-59932000D01*
X130155760Y-59932000D01*
X130221942Y-59938518D01*
X130221942Y-59938518D01*
G37*
G36*
X132761943Y-57398519D02*
G01*
X132828127Y-57405037D01*
X132997966Y-57456557D01*
X133154491Y-57540222D01*
X133190229Y-57569552D01*
X133291686Y-57652814D01*
X133374948Y-57754271D01*
X133404278Y-57790009D01*
X133487943Y-57946534D01*
X133539463Y-58116373D01*
X133556859Y-58293000D01*
X133539463Y-58469627D01*
X133487943Y-58639466D01*
X133404278Y-58795991D01*
X133374948Y-58831729D01*
X133291686Y-58933186D01*
X133190229Y-59016448D01*
X133154491Y-59045778D01*
X132997966Y-59129443D01*
X132828127Y-59180963D01*
X132761942Y-59187482D01*
X132695760Y-59194000D01*
X132607240Y-59194000D01*
X132541058Y-59187482D01*
X132474873Y-59180963D01*
X132305034Y-59129443D01*
X132148509Y-59045778D01*
X132112771Y-59016448D01*
X132011314Y-58933186D01*
X131928052Y-58831729D01*
X131898722Y-58795991D01*
X131815057Y-58639466D01*
X131763537Y-58469627D01*
X131746141Y-58293000D01*
X131763537Y-58116373D01*
X131815057Y-57946534D01*
X131898722Y-57790009D01*
X131928052Y-57754271D01*
X132011314Y-57652814D01*
X132112771Y-57569552D01*
X132148509Y-57540222D01*
X132305034Y-57456557D01*
X132474873Y-57405037D01*
X132541057Y-57398519D01*
X132607240Y-57392000D01*
X132695760Y-57392000D01*
X132761943Y-57398519D01*
X132761943Y-57398519D01*
G37*
G36*
X130221943Y-57398519D02*
G01*
X130288127Y-57405037D01*
X130457966Y-57456557D01*
X130614491Y-57540222D01*
X130650229Y-57569552D01*
X130751686Y-57652814D01*
X130834948Y-57754271D01*
X130864278Y-57790009D01*
X130947943Y-57946534D01*
X130999463Y-58116373D01*
X131016859Y-58293000D01*
X130999463Y-58469627D01*
X130947943Y-58639466D01*
X130864278Y-58795991D01*
X130834948Y-58831729D01*
X130751686Y-58933186D01*
X130650229Y-59016448D01*
X130614491Y-59045778D01*
X130457966Y-59129443D01*
X130288127Y-59180963D01*
X130221942Y-59187482D01*
X130155760Y-59194000D01*
X130067240Y-59194000D01*
X130001058Y-59187482D01*
X129934873Y-59180963D01*
X129765034Y-59129443D01*
X129608509Y-59045778D01*
X129572771Y-59016448D01*
X129471314Y-58933186D01*
X129388052Y-58831729D01*
X129358722Y-58795991D01*
X129275057Y-58639466D01*
X129223537Y-58469627D01*
X129206141Y-58293000D01*
X129223537Y-58116373D01*
X129275057Y-57946534D01*
X129358722Y-57790009D01*
X129388052Y-57754271D01*
X129471314Y-57652814D01*
X129572771Y-57569552D01*
X129608509Y-57540222D01*
X129765034Y-57456557D01*
X129934873Y-57405037D01*
X130001057Y-57398519D01*
X130067240Y-57392000D01*
X130155760Y-57392000D01*
X130221943Y-57398519D01*
X130221943Y-57398519D01*
G37*
G36*
X147725000Y-57100660D02*
G01*
X143051000Y-57100660D01*
X143051000Y-53696660D01*
X147725000Y-53696660D01*
X147725000Y-57100660D01*
X147725000Y-57100660D01*
G37*
G36*
X130221942Y-54858518D02*
G01*
X130288127Y-54865037D01*
X130457966Y-54916557D01*
X130614491Y-55000222D01*
X130650229Y-55029552D01*
X130751686Y-55112814D01*
X130834948Y-55214271D01*
X130864278Y-55250009D01*
X130947943Y-55406534D01*
X130999463Y-55576373D01*
X131016859Y-55753000D01*
X130999463Y-55929627D01*
X130947943Y-56099466D01*
X130864278Y-56255991D01*
X130834948Y-56291729D01*
X130751686Y-56393186D01*
X130650229Y-56476448D01*
X130614491Y-56505778D01*
X130457966Y-56589443D01*
X130288127Y-56640963D01*
X130221942Y-56647482D01*
X130155760Y-56654000D01*
X130067240Y-56654000D01*
X130001058Y-56647482D01*
X129934873Y-56640963D01*
X129765034Y-56589443D01*
X129608509Y-56505778D01*
X129572771Y-56476448D01*
X129471314Y-56393186D01*
X129388052Y-56291729D01*
X129358722Y-56255991D01*
X129275057Y-56099466D01*
X129223537Y-55929627D01*
X129206141Y-55753000D01*
X129223537Y-55576373D01*
X129275057Y-55406534D01*
X129358722Y-55250009D01*
X129388052Y-55214271D01*
X129471314Y-55112814D01*
X129572771Y-55029552D01*
X129608509Y-55000222D01*
X129765034Y-54916557D01*
X129934873Y-54865037D01*
X130001058Y-54858518D01*
X130067240Y-54852000D01*
X130155760Y-54852000D01*
X130221942Y-54858518D01*
X130221942Y-54858518D01*
G37*
G36*
X132761942Y-54858518D02*
G01*
X132828127Y-54865037D01*
X132997966Y-54916557D01*
X133154491Y-55000222D01*
X133190229Y-55029552D01*
X133291686Y-55112814D01*
X133374948Y-55214271D01*
X133404278Y-55250009D01*
X133487943Y-55406534D01*
X133539463Y-55576373D01*
X133556859Y-55753000D01*
X133539463Y-55929627D01*
X133487943Y-56099466D01*
X133404278Y-56255991D01*
X133374948Y-56291729D01*
X133291686Y-56393186D01*
X133190229Y-56476448D01*
X133154491Y-56505778D01*
X132997966Y-56589443D01*
X132828127Y-56640963D01*
X132761942Y-56647482D01*
X132695760Y-56654000D01*
X132607240Y-56654000D01*
X132541058Y-56647482D01*
X132474873Y-56640963D01*
X132305034Y-56589443D01*
X132148509Y-56505778D01*
X132112771Y-56476448D01*
X132011314Y-56393186D01*
X131928052Y-56291729D01*
X131898722Y-56255991D01*
X131815057Y-56099466D01*
X131763537Y-55929627D01*
X131746141Y-55753000D01*
X131763537Y-55576373D01*
X131815057Y-55406534D01*
X131898722Y-55250009D01*
X131928052Y-55214271D01*
X132011314Y-55112814D01*
X132112771Y-55029552D01*
X132148509Y-55000222D01*
X132305034Y-54916557D01*
X132474873Y-54865037D01*
X132541058Y-54858518D01*
X132607240Y-54852000D01*
X132695760Y-54852000D01*
X132761942Y-54858518D01*
X132761942Y-54858518D01*
G37*
G36*
X132761942Y-52318518D02*
G01*
X132828127Y-52325037D01*
X132997966Y-52376557D01*
X133154491Y-52460222D01*
X133190229Y-52489552D01*
X133291686Y-52572814D01*
X133374948Y-52674271D01*
X133404278Y-52710009D01*
X133487943Y-52866534D01*
X133539463Y-53036373D01*
X133556859Y-53213000D01*
X133539463Y-53389627D01*
X133487943Y-53559466D01*
X133404278Y-53715991D01*
X133374948Y-53751729D01*
X133291686Y-53853186D01*
X133190229Y-53936448D01*
X133154491Y-53965778D01*
X132997966Y-54049443D01*
X132828127Y-54100963D01*
X132761942Y-54107482D01*
X132695760Y-54114000D01*
X132607240Y-54114000D01*
X132541058Y-54107482D01*
X132474873Y-54100963D01*
X132305034Y-54049443D01*
X132148509Y-53965778D01*
X132112771Y-53936448D01*
X132011314Y-53853186D01*
X131928052Y-53751729D01*
X131898722Y-53715991D01*
X131815057Y-53559466D01*
X131763537Y-53389627D01*
X131746141Y-53213000D01*
X131763537Y-53036373D01*
X131815057Y-52866534D01*
X131898722Y-52710009D01*
X131928052Y-52674271D01*
X132011314Y-52572814D01*
X132112771Y-52489552D01*
X132148509Y-52460222D01*
X132305034Y-52376557D01*
X132474873Y-52325037D01*
X132541058Y-52318518D01*
X132607240Y-52312000D01*
X132695760Y-52312000D01*
X132761942Y-52318518D01*
X132761942Y-52318518D01*
G37*
G36*
X131012500Y-54114000D02*
G01*
X129210500Y-54114000D01*
X129210500Y-52312000D01*
X131012500Y-52312000D01*
X131012500Y-54114000D01*
X131012500Y-54114000D01*
G37*
G36*
X132063370Y-45419859D02*
G01*
X132256568Y-45458288D01*
X132802533Y-45684434D01*
X133293889Y-46012748D01*
X133711752Y-46430611D01*
X134040066Y-46921967D01*
X134266212Y-47467932D01*
X134381500Y-48047526D01*
X134381500Y-48638474D01*
X134266212Y-49218068D01*
X134040066Y-49764033D01*
X133711752Y-50255389D01*
X133293889Y-50673252D01*
X132802533Y-51001566D01*
X132256568Y-51227712D01*
X132063370Y-51266141D01*
X131676976Y-51343000D01*
X131086024Y-51343000D01*
X130699630Y-51266141D01*
X130506432Y-51227712D01*
X129960467Y-51001566D01*
X129469111Y-50673252D01*
X129051248Y-50255389D01*
X128722934Y-49764033D01*
X128496788Y-49218068D01*
X128381500Y-48638474D01*
X128381500Y-48047526D01*
X128496788Y-47467932D01*
X128722934Y-46921967D01*
X129051248Y-46430611D01*
X129469111Y-46012748D01*
X129960467Y-45684434D01*
X130506432Y-45458288D01*
X130699630Y-45419859D01*
X131086024Y-45343000D01*
X131676976Y-45343000D01*
X132063370Y-45419859D01*
X132063370Y-45419859D01*
G37*
G36*
X109063370Y-45419859D02*
G01*
X109256568Y-45458288D01*
X109802533Y-45684434D01*
X110293889Y-46012748D01*
X110711752Y-46430611D01*
X111040066Y-46921967D01*
X111266212Y-47467932D01*
X111381500Y-48047526D01*
X111381500Y-48638474D01*
X111266212Y-49218068D01*
X111040066Y-49764033D01*
X110711752Y-50255389D01*
X110293889Y-50673252D01*
X109802533Y-51001566D01*
X109256568Y-51227712D01*
X109063370Y-51266141D01*
X108676976Y-51343000D01*
X108086024Y-51343000D01*
X107699630Y-51266141D01*
X107506432Y-51227712D01*
X106960467Y-51001566D01*
X106469111Y-50673252D01*
X106051248Y-50255389D01*
X105722934Y-49764033D01*
X105496788Y-49218068D01*
X105381500Y-48638474D01*
X105381500Y-48047526D01*
X105496788Y-47467932D01*
X105722934Y-46921967D01*
X106051248Y-46430611D01*
X106469111Y-46012748D01*
X106960467Y-45684434D01*
X107506432Y-45458288D01*
X107699630Y-45419859D01*
X108086024Y-45343000D01*
X108676976Y-45343000D01*
X109063370Y-45419859D01*
X109063370Y-45419859D01*
G37*
M02*
