G04 #@! TF.GenerationSoftware,KiCad,Pcbnew,5.1.2-f72e74a~84~ubuntu18.04.1*
G04 #@! TF.CreationDate,2019-05-17T13:13:24-07:00*
G04 #@! TF.ProjectId,RPZ_SC_VNA,52505a5f-5343-45f5-964e-412e6b696361,rev?*
G04 #@! TF.SameCoordinates,Original*
G04 #@! TF.FileFunction,Other,User*
%FSLAX46Y46*%
G04 Gerber Fmt 4.6, Leading zero omitted, Abs format (unit mm)*
G04 Created by KiCad (PCBNEW 5.1.2-f72e74a~84~ubuntu18.04.1) date 2019-05-17 13:13:24*
%MOMM*%
%LPD*%
G04 APERTURE LIST*
%ADD10C,0.050000*%
G04 APERTURE END LIST*
D10*
X139816240Y-64129420D02*
X142916240Y-64129420D01*
X142916240Y-64129420D02*
X142916240Y-68829420D01*
X142916240Y-68829420D02*
X139816240Y-68829420D01*
X139816240Y-68829420D02*
X139816240Y-64129420D01*
X147685000Y-66040000D02*
G75*
G03X147685000Y-66040000I-1000000J0D01*
G01*
X147050000Y-83185000D02*
G75*
G03X147050000Y-83185000I-1000000J0D01*
G01*
X143240000Y-70612000D02*
G75*
G03X143240000Y-70612000I-1000000J0D01*
G01*
X147050000Y-69850000D02*
G75*
G03X147050000Y-69850000I-1000000J0D01*
G01*
X138795000Y-104775000D02*
G75*
G03X138795000Y-104775000I-1000000J0D01*
G01*
X127083800Y-71992000D02*
X121683800Y-71992000D01*
X121683800Y-71992000D02*
X121683800Y-79392000D01*
X121683800Y-79392000D02*
X127083800Y-79392000D01*
X127083800Y-79392000D02*
X127083800Y-71992000D01*
X139008520Y-85269840D02*
X142108520Y-85269840D01*
X142108520Y-85269840D02*
X142108520Y-89969840D01*
X142108520Y-89969840D02*
X139008520Y-89969840D01*
X139008520Y-89969840D02*
X139008520Y-85269840D01*
X138537500Y-93665000D02*
X138537500Y-95565000D01*
X138537500Y-95565000D02*
X135177500Y-95565000D01*
X135177500Y-95565000D02*
X135177500Y-93665000D01*
X135177500Y-93665000D02*
X138537500Y-93665000D01*
X135812500Y-100010000D02*
X135812500Y-98110000D01*
X135812500Y-98110000D02*
X139172500Y-98110000D01*
X139172500Y-98110000D02*
X139172500Y-100010000D01*
X139172500Y-100010000D02*
X135812500Y-100010000D01*
X140020000Y-93267500D02*
X141920000Y-93267500D01*
X141920000Y-93267500D02*
X141920000Y-96627500D01*
X141920000Y-96627500D02*
X140020000Y-96627500D01*
X140020000Y-96627500D02*
X140020000Y-93267500D01*
X119065000Y-66597500D02*
X120965000Y-66597500D01*
X120965000Y-66597500D02*
X120965000Y-69957500D01*
X120965000Y-69957500D02*
X119065000Y-69957500D01*
X119065000Y-69957500D02*
X119065000Y-66597500D01*
X119065000Y-62787500D02*
X120965000Y-62787500D01*
X120965000Y-62787500D02*
X120965000Y-66147500D01*
X120965000Y-66147500D02*
X119065000Y-66147500D01*
X119065000Y-66147500D02*
X119065000Y-62787500D01*
X120965000Y-84532500D02*
X119065000Y-84532500D01*
X119065000Y-84532500D02*
X119065000Y-81172500D01*
X119065000Y-81172500D02*
X120965000Y-81172500D01*
X120965000Y-81172500D02*
X120965000Y-84532500D01*
X121812500Y-63180000D02*
X121812500Y-61280000D01*
X121812500Y-61280000D02*
X125172500Y-61280000D01*
X125172500Y-61280000D02*
X125172500Y-63180000D01*
X125172500Y-63180000D02*
X121812500Y-63180000D01*
X120965000Y-88342500D02*
X119065000Y-88342500D01*
X119065000Y-88342500D02*
X119065000Y-84982500D01*
X119065000Y-84982500D02*
X120965000Y-84982500D01*
X120965000Y-84982500D02*
X120965000Y-88342500D01*
X120965000Y-62337500D02*
X119065000Y-62337500D01*
X119065000Y-62337500D02*
X119065000Y-58977500D01*
X119065000Y-58977500D02*
X120965000Y-58977500D01*
X120965000Y-58977500D02*
X120965000Y-62337500D01*
X141920000Y-56622500D02*
X140020000Y-56622500D01*
X140020000Y-56622500D02*
X140020000Y-53262500D01*
X140020000Y-53262500D02*
X141920000Y-53262500D01*
X141920000Y-53262500D02*
X141920000Y-56622500D01*
X121842500Y-89850000D02*
X121842500Y-87950000D01*
X121842500Y-87950000D02*
X125202500Y-87950000D01*
X125202500Y-87950000D02*
X125202500Y-89850000D01*
X125202500Y-89850000D02*
X121842500Y-89850000D01*
X140731200Y-58977500D02*
X142631200Y-58977500D01*
X142631200Y-58977500D02*
X142631200Y-62337500D01*
X142631200Y-62337500D02*
X140731200Y-62337500D01*
X140731200Y-62337500D02*
X140731200Y-58977500D01*
X119065000Y-88792500D02*
X120965000Y-88792500D01*
X120965000Y-88792500D02*
X120965000Y-92152500D01*
X120965000Y-92152500D02*
X119065000Y-92152500D01*
X119065000Y-92152500D02*
X119065000Y-88792500D01*
X141712500Y-74615000D02*
X141712500Y-76515000D01*
X141712500Y-76515000D02*
X138352500Y-76515000D01*
X138352500Y-76515000D02*
X138352500Y-74615000D01*
X138352500Y-74615000D02*
X141712500Y-74615000D01*
X141682500Y-72075000D02*
X141682500Y-73975000D01*
X141682500Y-73975000D02*
X138322500Y-73975000D01*
X138322500Y-73975000D02*
X138322500Y-72075000D01*
X138322500Y-72075000D02*
X141682500Y-72075000D01*
X127950000Y-62307500D02*
X126050000Y-62307500D01*
X126050000Y-62307500D02*
X126050000Y-58947500D01*
X126050000Y-58947500D02*
X127950000Y-58947500D01*
X127950000Y-58947500D02*
X127950000Y-62307500D01*
X126050000Y-88822500D02*
X127950000Y-88822500D01*
X127950000Y-88822500D02*
X127950000Y-92182500D01*
X127950000Y-92182500D02*
X126050000Y-92182500D01*
X126050000Y-92182500D02*
X126050000Y-88822500D01*
X138352500Y-93025000D02*
X138352500Y-91125000D01*
X138352500Y-91125000D02*
X141712500Y-91125000D01*
X141712500Y-91125000D02*
X141712500Y-93025000D01*
X141712500Y-93025000D02*
X138352500Y-93025000D01*
X121812500Y-70800000D02*
X121812500Y-68900000D01*
X121812500Y-68900000D02*
X125172500Y-68900000D01*
X125172500Y-68900000D02*
X125172500Y-70800000D01*
X125172500Y-70800000D02*
X121812500Y-70800000D01*
X121812500Y-66990000D02*
X121812500Y-65090000D01*
X121812500Y-65090000D02*
X125172500Y-65090000D01*
X125172500Y-65090000D02*
X125172500Y-66990000D01*
X125172500Y-66990000D02*
X121812500Y-66990000D01*
X121842500Y-83042800D02*
X121842500Y-81142800D01*
X121842500Y-81142800D02*
X125202500Y-81142800D01*
X125202500Y-81142800D02*
X125202500Y-83042800D01*
X125202500Y-83042800D02*
X121842500Y-83042800D01*
X121842500Y-86675000D02*
X121842500Y-84775000D01*
X121842500Y-84775000D02*
X125202500Y-84775000D01*
X125202500Y-84775000D02*
X125202500Y-86675000D01*
X125202500Y-86675000D02*
X121842500Y-86675000D01*
X121842500Y-60640000D02*
X121842500Y-58740000D01*
X121842500Y-58740000D02*
X125202500Y-58740000D01*
X125202500Y-58740000D02*
X125202500Y-60640000D01*
X125202500Y-60640000D02*
X121842500Y-60640000D01*
X121842500Y-56830000D02*
X121842500Y-54930000D01*
X121842500Y-54930000D02*
X125202500Y-54930000D01*
X125202500Y-54930000D02*
X125202500Y-56830000D01*
X125202500Y-56830000D02*
X121842500Y-56830000D01*
X121842500Y-92390000D02*
X121842500Y-90490000D01*
X121842500Y-90490000D02*
X125202500Y-90490000D01*
X125202500Y-90490000D02*
X125202500Y-92390000D01*
X125202500Y-92390000D02*
X121842500Y-92390000D01*
X136210000Y-60374500D02*
X138110000Y-60374500D01*
X138110000Y-60374500D02*
X138110000Y-63734500D01*
X138110000Y-63734500D02*
X136210000Y-63734500D01*
X136210000Y-63734500D02*
X136210000Y-60374500D01*
X138750000Y-60247500D02*
X140650000Y-60247500D01*
X140650000Y-60247500D02*
X140650000Y-63607500D01*
X140650000Y-63607500D02*
X138750000Y-63607500D01*
X138750000Y-63607500D02*
X138750000Y-60247500D01*
X121842500Y-96200000D02*
X121842500Y-94300000D01*
X121842500Y-94300000D02*
X125202500Y-94300000D01*
X125202500Y-94300000D02*
X125202500Y-96200000D01*
X125202500Y-96200000D02*
X121842500Y-96200000D01*
X135575000Y-86282500D02*
X137475000Y-86282500D01*
X137475000Y-86282500D02*
X137475000Y-89642500D01*
X137475000Y-89642500D02*
X135575000Y-89642500D01*
X135575000Y-89642500D02*
X135575000Y-86282500D01*
X136210000Y-64438500D02*
X138110000Y-64438500D01*
X138110000Y-64438500D02*
X138110000Y-67798500D01*
X138110000Y-67798500D02*
X136210000Y-67798500D01*
X136210000Y-67798500D02*
X136210000Y-64438500D01*
X136845000Y-82472500D02*
X138745000Y-82472500D01*
X138745000Y-82472500D02*
X138745000Y-85832500D01*
X138745000Y-85832500D02*
X136845000Y-85832500D01*
X136845000Y-85832500D02*
X136845000Y-82472500D01*
X138110000Y-77392500D02*
X138110000Y-80752500D01*
X136210000Y-77392500D02*
X138110000Y-77392500D01*
X136210000Y-80752500D02*
X136210000Y-77392500D01*
X138110000Y-80752500D02*
X136210000Y-80752500D01*
M02*
